<?xml version="1.0" encoding="UTF-8" standalone="no"?>
<!-- Created with Inkscape (http://www.inkscape.org/) -->

<svg
   width="191.02515mm"
   height="284.44836mm"
   viewBox="0 0 191.02515 284.44836"
   version="1.1"
   id="svg5"
   xmlns="http://www.w3.org/2000/svg"
   xmlns:svg="http://www.w3.org/2000/svg">
  <defs
     id="defs2" />
  <g
     id="layer1"
     transform="translate(2.0242475,13.631191)">
    <path
       style="fill:#000000;fill-opacity:1;fill-rule:nonzero;stroke:none;stroke-width:0.264583"
       id="path138"
       d="M 49.067955,32.671567 C 55.959176,34.479788 63.070165,35.505339 70.171534,36.011455 74.019065,36.285672 77.879524,36.342375 81.735791,36.431241 93.851065,36.710434 94.401012,36.555452 106.5422,36.269218 114.6109,35.671069 119.40969,35.389592 127.30029,34.53793 129.88159,34.259321 132.45247,33.891497 135.02893,33.571296 137.14232,33.308647 139.26177,33.091739 141.36984,32.789376 149.37566,31.641094 142.74834,32.174711 150.36896,31.74828 150.94564,31.76937 151.52195,31.809232 152.09901,31.811555 154.95226,31.823035 157.80541,31.768415 160.6585,31.736067 162.87386,31.71095 165.89999,31.701472 168.14209,31.512451 169.03943,31.436799 169.92759,31.276218 170.82033,31.158103 171.41686,31.033881 172.02238,30.946889 172.60993,30.785437 172.93076,30.697278 173.21207,30.48963 173.53561,30.411988 174.24146,30.242597 175.92854,30.731012 175.68265,30.048044 174.12355,25.717698 173.01508,23.130676 170.54257,25.002185 170.16056,25.291336 169.83207,25.645103 169.47683,25.966562 169.06355,26.602012 168.51333,27.167054 168.23701,27.872915 167.01841,30.985867 166.77672,34.041556 166.52413,37.355499 166.31446,40.10647 166.11432,42.861132 166.06592,45.619656 165.90066,55.039122 166.34419,58.94249 166.93607,68.550956 169.21705,92.139234 166.90287,69.722959 169.62002,92.094165 170.05515,95.676761 170.31794,99.279846 170.7996,102.85648 173.49945,122.90471 171.19412,101.93029 173.49,119.93089 173.80079,122.3676 173.99502,124.81776 174.24753,127.2612 174.65472,135.24703 174.14024,143.24616 174.45411,151.23307 174.54961,153.66331 174.77374,156.08717 174.98503,158.5101 175.15911,160.50641 175.31399,162.50729 175.61009,164.48918 175.82172,165.90561 176.20747,167.2905 176.50615,168.69116 176.81854,169.45663 177.05385,170.25829 177.44331,170.98757 178.888,173.69289 183.84547,172.1535 185.64675,171.87917 186.05414,171.81713 185.88723,171.08789 185.94934,170.68051 186.07503,169.85609 186.04895,169.96696 185.72814,169.43019 183.14177,169.88438 180.26371,169.516 177.96905,170.79275 176.9055,171.38452 177.23316,173.11629 176.96825,174.3042 175.72407,179.88338 175.73455,181.15984 175.29798,187.08161 174.62592,196.19761 174.78766,193.48131 174.81626,202.47156 174.99111,210.92143 174.57689,219.36928 175.24319,227.80466 175.52337,231.35162 175.44416,230.60021 176.03133,233.44167 177.55918,236.44713 176.58602,235.15668 184.10505,234.13057 184.40838,234.08918 184.22561,233.52691 184.23104,233.22082 184.24008,232.71145 184.08297,230.81843 183.58253,230.58291 181.50066,229.60309 179.15777,229.31864 176.94539,228.6865 173.79703,230.06907 173.24403,230.29645 169.93477,231.82234 168.32724,232.56358 166.76512,233.4084 165.12272,234.06879 162.6403,235.06692 160.06611,235.82334 157.57244,236.79302 131.03538,247.11213 167.7652,233.43333 138.36698,244.26245 134.63605,245.43358 130.9726,246.84658 127.17419,247.77583 122.94359,248.81082 118.61336,249.38572 114.32456,250.14426 105.57433,251.69186 99.033403,253.00313 90.164702,253.28074 86.304717,253.40156 77.190356,251.83994 74.199948,251.40321 68.353976,250.04152 62.816244,248.87845 58.022513,245.08215 57.552978,244.71031 57.192206,244.21773 56.803956,243.76167 56.775241,243.72794 56.90717,243.76294 56.931149,243.80019 57.084676,244.03865 57.188364,244.30574 57.316973,244.55852 57.565141,244.64046 57.804658,244.75591 58.061478,244.80433 60.51443,245.26684 61.963392,243.76364 63.13579,241.12353 63.79053,239.64914 63.662218,237.92295 63.637508,236.30991 63.614426,234.80307 63.208174,233.32661 62.993505,231.83496 62.084082,226.72843 59.981538,221.93777 58.84478,216.89211 58.444269,215.11438 58.147724,213.31188 57.923559,211.50344 57.218693,205.81697 57.407344,204.04618 57.393821,198.13231 57.444092,195.51724 57.458117,192.90121 57.544636,190.28708 58.033858,175.50524 57.906131,188.20287 58.063359,173.84477 58.284191,153.67801 57.98544,178.30648 58.005789,160.29028 58.008014,158.32084 58.077459,156.35206 58.113294,154.38295 57.885173,150.99191 57.898167,149.18241 57.239159,145.97623 57.060337,145.10623 56.725708,144.2746 56.519778,143.41061 56.333297,142.62822 56.260147,141.82108 56.062927,141.04133 55.591429,139.17715 55.33414,138.77076 54.594958,137.10949 54.415488,136.67689 54.171918,136.2656 54.056554,135.81167 53.841731,134.96639 53.988779,133.41219 54.035229,132.65881 54.087373,131.81313 54.164041,130.96906 54.215421,130.12333 54.514874,125.19431 54.154823,129.42325 54.682053,123.99278 54.732078,120.28424 54.896128,116.56196 54.738058,112.85331 54.586872,109.30615 54.532265,112.32209 54.7098,108.51783 55.054317,104.74266 54.921559,100.95975 54.83076,97.178023 54.809072,96.274799 54.746538,95.37249 54.742143,94.469018 54.737481,93.510842 54.783114,92.553082 54.803598,91.595113 54.981538,89.781575 54.582242,87.959903 54.697018,86.147218 54.774689,84.920541 55.054388,83.713853 55.166974,82.489886 55.294921,81.098939 55.29182,79.698055 55.418206,78.306966 56.393405,67.573236 55.860494,78.050278 56.267807,66.751345 56.035418,61.241312 56.218796,61.9741 55.495724,56.98423 55.344554,55.941007 55.191995,54.896054 54.963872,53.866914 54.82314,53.232018 54.554855,52.63131 54.391324,52.001904 54.355134,51.862611 54.021516,50.06496 53.962392,49.748238 54.005194,49.230719 53.642545,48.746179 53.706662,48.228384 53.738327,47.972675 53.835762,47.728758 53.877275,47.474465 53.914386,47.247135 54.135408,45.168663 54.141377,45.113471 54.303384,43.734061 54.121362,42.351922 54.109556,40.97375 54.105656,40.518632 54.155556,40.064258 54.15557,39.609127 54.155596,38.581494 54.103682,38.287229 54.005479,37.312282 54.039267,36.727108 53.728561,36.217658 53.591697,35.68134 53.558339,35.55062 53.675507,35.271966 53.692424,35.214356 53.854505,33.952862 53.885737,32.669519 53.834244,31.39872 53.808928,30.932948 53.755014,30.469641 53.701809,30.006493 53.701799,29.487553 46.362895,29.487706 46.362905,30.006647 V 30.006647 C 46.309705,30.469522 46.255783,30.932551 46.230381,31.398043 46.17857,32.669615 46.209534,33.953743 46.371377,35.21606 46.387596,35.272408 46.506132,35.562762 46.472691,35.695077 46.342487,36.210232 46.020151,36.743232 46.061394,37.312814 45.963339,38.286383 45.911621,38.580282 45.911095,39.606495 45.910862,40.060951 45.960445,40.514685 45.956074,40.96912 45.942816,42.346985 45.757949,43.728629 45.917876,45.107997 45.924366,45.168952 46.141721,47.246169 46.178665,47.476145 46.220483,47.736458 46.317503,47.986711 46.349673,48.248395 46.413689,48.769092 46.070236,49.257058 46.108238,49.77716 46.045926,50.124357 45.74246,51.830419 45.695473,52.01322 45.534474,52.639547 45.268234,53.237198 45.128687,53.868653 44.901757,54.895524 44.749772,55.938012 44.598145,56.978674 43.869387,61.98036 44.054365,61.205932 43.80785,66.733231 44.185485,78.309011 43.673222,67.28624 44.610086,78.276221 44.728749,79.668234 44.714413,81.069451 44.832979,82.461469 44.937497,83.688565 45.208594,84.899544 45.278958,86.129071 45.383936,87.963527 44.972467,89.804366 45.167346,91.640315 45.198609,92.61227 45.249991,93.583788 45.261133,94.556182 45.271597,95.469367 45.230581,96.382521 45.23215,97.295765 45.238603,101.04686 45.267123,104.7983 45.687204,108.53122 45.725479,109.24692 45.818086,109.96176 45.802028,110.6783 45.787682,111.3184 45.660304,111.95097 45.596291,112.58802 45.393541,114.60575 45.333263,115.43336 45.159228,117.50681 44.551793,123.61702 45.082788,116.97699 44.592538,123.65704 44.609996,124.8177 44.631546,125.9783 44.64491,127.13902 44.656988,128.18813 44.615181,129.23867 44.668865,130.28648 44.833238,133.49473 45.470466,136.63894 46.547029,139.66319 46.932357,140.96368 47.536491,142.62392 47.477597,143.98384 47.449036,144.64339 47.219332,145.27872 47.098743,145.92779 46.352176,149.9462 46.503269,149.23283 45.796959,153.84219 45.628946,155.77202 45.511664,157.70695 45.29292,159.63169 44.11555,169.99147 44.608495,161.94063 43.641197,173.33861 43.009523,180.78184 42.951122,182.88934 43.148316,190.46572 43.221412,193.27405 43.409028,196.07823 43.539386,198.88449 43.859021,201.51701 44.105906,204.1594 44.498294,206.78207 45.92425,216.31295 48.631945,225.52053 52.639205,234.28416 53.152381,235.35732 53.474667,236.54483 54.178736,237.50364 55.006311,238.63063 57.214206,238.3694 57.679875,236.86775 57.852529,236.31099 56.510612,236.76241 55.931559,236.82937 53.021478,237.16588 53.156222,237.48744 50.441634,239.03993 49.612512,240.21326 48.471518,241.21953 47.954265,242.5599 46.790435,245.57575 47.293543,249.03896 48.708521,251.85269 50.810421,256.03241 54.573714,259.60717 58.426402,262.10318 61.175381,263.88414 64.247413,265.10829 67.157917,266.61083 70.941173,267.6838 74.616023,269.26468 78.507682,269.8297 88.309422,271.25279 99.325699,271.03258 109.21112,269.83888 113.81985,269.28236 118.43421,268.6251 122.94417,267.52497 132.72193,265.1398 138.97328,262.15819 148.09339,258.36411 155.48284,254.48221 159.69801,252.56557 166.45375,247.9552 168.69397,246.42639 170.77085,244.67086 172.91413,243.00887 175.76233,240.80025 178.86667,238.63646 180.94591,235.62181 179.42987,234.75607 177.87629,233.953 176.39779,233.0246 176.30985,232.96938 176.32117,232.6176 176.32674,232.72129 176.33413,232.85898 176.5316,234.26277 176.59443,234.27747 184.17038,236.04976 182.90553,237.25426 184.96966,234.20362 185.2604,233.47109 185.61119,232.75962 185.84189,232.00601 186.20664,230.81457 186.49706,229.60011 186.75233,228.38051 187.10194,226.71019 187.43321,225.03324 187.65549,223.34126 188.55888,216.46485 188.34212,209.546 188.69462,202.63552 188.97025,193.82779 189.07183,196.15523 188.63333,187.20312 188.32798,180.96929 188.40902,180.17142 187.15032,174.34993 186.896,173.17372 187.24107,171.45109 186.1869,170.87067 183.89802,169.61042 181.03426,169.99951 178.45794,169.56393 178.38467,169.62954 178.26137,169.66519 178.23812,169.76075 178.23052,169.79199 178.10147,170.80114 178.48924,170.84576 180.93338,171.12698 183.39225,171.37902 185.8524,171.35567 186.1418,171.35293 186.35992,171.02671 186.49321,170.76981 186.85399,170.07441 187.03197,169.29851 187.30135,168.56286 187.5607,167.18334 187.89778,165.81619 188.0794,164.42431 188.34115,162.41819 188.49184,160.39838 188.63,158.37999 188.79713,155.93817 188.96508,153.49382 188.99506,151.04647 189.02902,148.27464 188.90748,145.50286 188.8217,142.73214 188.58478,135.08035 188.45504,134.0219 187.97015,126.48947 187.89234,124.00106 187.77833,121.51352 187.73669,119.02424 187.69034,116.25301 187.73776,103.95662 187.65482,101.64891 187.52374,98.001851 187.19755,94.364404 186.98313,90.721298 186.01625,74.293663 186.84642,83.847354 184.95995,66.772218 184.25706,62.722151 183.69423,58.645268 182.85128,54.622022 181.09521,46.240641 180.21336,44.181061 177.80433,36.634785 177.36755,35.266569 176.94107,33.89509 176.50944,32.525245 176.24067,32.144054 175.88428,31.81147 175.70312,31.381671 175.64057,31.233268 175.78841,31.071073 175.83105,30.915774 178.85961,27.390452 175.49264,31.869581 173.55177,23.276981 173.42369,22.709953 176.99503,23.31358 174.80718,22.544045 174.29877,22.365223 173.76444,22.271051 173.24307,22.134554 172.42108,21.994028 171.60542,21.809414 170.7771,21.712974 168.66875,21.467504 165.52325,21.365255 163.45454,21.288346 158.15488,21.091319 152.85071,20.925826 147.5469,21.099202 138.74423,20.786901 147.45971,21.22332 137.92567,20.323262 135.6961,20.11278 133.45906,19.99071 131.22576,19.824419 128.47975,19.619952 125.73736,19.359085 122.98774,19.210985 115.12362,18.787409 109.5658,18.79276 101.59135,18.677927 91.673332,18.988034 86.959711,19.037053 77.080138,19.735745 73.357601,19.999006 69.630514,20.251246 65.927398,20.713316 61.7074,21.239882 54.743169,22.552555 50.306644,23.724009 49.200027,24.016208 48.135574,24.449538 47.050039,24.812303 46.494305,24.954991 48.512221,32.814257 49.067955,32.671567 Z" />
    <path
       style="fill:#000000;fill-opacity:1;fill-rule:nonzero;stroke:none;stroke-width:0.264583"
       id="path140"
       d="M 55.329851,234.43572 C 54.919594,234.33305 54.516202,234.19744 54.099078,234.12771 53.263916,233.9881 51.235625,233.86385 50.460423,233.8204 49.232901,233.75158 47.139222,233.65504 45.921996,233.67788 45.225395,233.69095 44.530912,233.75898 43.83537,233.79953 42.938869,233.86773 41.531569,233.95878 40.60626,234.08424 40.016125,234.08171 39.476203,234.34388 38.903018,234.42632 38.544145,234.47794 38.178673,234.46115 37.816959,234.48594 37.557093,234.50511 37.297817,234.53147 37.038036,234.55165 36.936642,234.55953 36.651681,234.51252 36.733665,234.5727 36.995145,234.76464 37.350369,234.79513 37.618468,234.97771 39.00108,235.91926 38.1328,235.81329 38.776539,235.86807 38.861306,232.32418 38.925751,228.76571 38.688258,225.22572 38.61789,224.17686 38.50179,223.13156 38.408557,222.08448 38.101936,220.43507 37.940244,218.76357 37.669935,217.10875 37.621207,216.81043 37.18076,214.70198 37.175559,214.20814 37.169484,213.63119 37.274814,213.05844 37.320601,212.48328 37.375703,211.7911 37.42568,211.09852 37.478221,210.40613 37.452903,207.90056 37.426397,205.38149 37.26389,202.87941 37.208597,202.0281 37.093805,201.18164 37.022029,200.33157 37.158744,199.07568 36.971657,197.81926 36.956576,196.5664 36.922596,193.74324 37.141708,196.4087 36.996123,193.14546 36.967874,192.51229 36.889986,191.88231 36.836918,191.25074 36.711535,189.50909 36.516878,187.77277 36.405137,186.03006 36.363322,185.37796 36.267313,184.72501 36.301534,184.07247 36.353146,183.08828 36.541641,182.11606 36.661695,181.13785 36.693824,179.96366 36.725949,178.78946 36.758078,177.61527 36.623492,175.31239 36.615957,173.00457 36.509041,170.70069 36.333721,166.92283 36.207946,168.01188 36.342145,163.90283 36.629435,155.10621 36.700846,163.36846 36.467991,154.06185 36.470111,148.74937 36.620161,147.64613 36.03889,142.4032 35.696575,139.3156 35.163667,136.91507 34.544711,133.92126 33.776814,130.20704 34.142203,131.7059 33.214013,128.4346 33.138446,127.51816 33.028969,126.60387 32.987308,125.68526 32.87164,123.13474 32.998039,120.71381 32.922001,118.15278 32.659587,109.31463 32.663595,118.10985 32.472344,108.63095 32.431484,106.60591 32.461223,104.58006 32.455665,102.55462 32.402412,100.26739 32.403991,97.978231 32.295909,95.69294 32.263471,95.007101 31.399308,83.36613 31.343253,82.497852 31.20567,80.366628 31.127342,78.231787 30.983115,76.101003 30.237535,65.085951 30.710177,75.366387 30.297038,64.583756 30.193456,60.472663 29.687512,56.389473 29.168804,52.315252 29.126442,51.982504 28.668014,48.961751 28.714734,48.387309 28.775797,47.63649 29.026641,46.913355 29.182594,46.176377 29.304025,45.317976 29.441116,44.461646 29.546886,43.601176 29.78632,41.653343 29.836811,40.908282 29.907751,39.003419 29.93027,38.398764 29.944631,37.793718 29.948409,37.188655 29.950981,36.776876 29.901044,36.364463 29.926798,35.953483 29.951637,35.557076 30.042051,35.167517 30.09968,34.774536 30.508207,33.063547 30.573419,31.237449 31.285132,29.60539 31.43782,29.255254 31.626011,28.921696 31.79645,28.579852 32.53037,26.838978 33.188883,25.075882 33.664204,23.247357 33.727667,23.111406 33.796888,22.977996 33.854591,22.839503 33.929669,22.659309 33.97559,22.466844 34.062286,22.291942 34.117586,22.180375 34.00933,22.538869 33.949483,22.648064 33.822907,22.879007 33.652732,23.083253 33.507992,23.303268 33.429797,23.422129 33.159557,23.590048 33.280752,23.664579 33.469212,23.780478 33.718463,23.599723 33.937321,23.567295 34.15743,23.528944 34.38336,23.515477 34.597654,23.452242 34.958239,23.345837 35.298044,23.177588 35.655252,23.060353 36.169502,22.891577 36.694157,22.756125 37.210738,22.594633 37.779351,22.416875 38.334817,22.195529 38.910625,22.042671 40.460903,21.631123 42.043614,21.353235 43.609328,21.004995 46.136469,20.31059 48.73404,20.006951 51.270937,19.351543 52.007481,19.161257 52.724605,18.899882 53.462348,18.714295 56.565088,18.045182 55.065289,18.39863 57.964006,17.663587 58.718103,17.470413 59.451398,17.158276 60.226299,17.084066 61.796077,16.933732 66.807534,17.46477 67.862491,17.510633 69.572332,17.584966 71.284964,17.5789 72.996419,17.577765 74.670276,17.576655 76.34539,17.426307 78.017446,17.503901 79.007154,17.54983 79.976831,17.799411 80.956522,17.947167 85.656771,17.95146 87.19767,18.05556 91.734726,17.69179 92.9793,17.592002 94.211626,17.370178 95.454842,17.254697 96.489971,17.158545 97.529516,17.117714 98.567334,17.057118 105.18661,16.690442 102.09633,16.868613 107.83846,16.527789 109.37767,16.432093 110.9207,16.385137 112.4561,16.240702 114.01037,16.094493 115.55165,15.831811 117.10288,15.656287 121.78976,15.12596 121.98014,15.274888 126.56129,14.534611 127.94112,14.311642 131.89187,13.491651 133.40085,13.183403 139.31808,11.898795 132.81537,13.286721 137.5894,12.327183 137.96558,12.251573 138.93243,12.391922 138.71304,12.077117 138.45009,11.699812 137.79705,11.991102 137.33783,11.966207 137.14272,11.955629 137.72784,11.999175 137.92009,12.034129 138.16136,12.077993 138.39756,12.146228 138.63629,12.202277 138.95185,12.326559 139.26972,12.445116 139.58297,12.575123 140.86777,13.10835 140.20698,12.88939 141.68022,13.475112 142.86965,13.947995 144.08678,14.292696 145.31861,14.633951 146.71837,15.013009 148.15265,15.230735 149.60363,15.227377 150.40916,15.225512 150.17083,15.324923 150.5698,15.091863 145.79964,12.186796 153.1921,16.869166 148.47681,13.223294 148.37706,13.146168 148.38038,13.462798 148.37972,13.588883 148.37805,13.90941 148.42934,14.228285 148.46993,14.546236 148.70429,16.382074 148.73693,16.282148 149.18596,18.292598 149.78144,20.322816 150.64275,22.254503 151.50184,24.182036 151.69778,24.773607 160.06386,22.002496 159.86792,21.410925 V 21.410925 C 159.17804,19.48807 158.41126,17.607443 157.52783,15.76338 157.13241,15.088544 156.55306,14.204232 156.27783,13.426394 156.16817,13.116461 156.12893,12.785725 156.0402,12.469161 155.43067,10.294355 154.93469,9.1398705 152.80102,8.1082249 151.44265,7.7002144 149.98493,7.6916779 148.59801,7.4042346 148.37758,7.3875523 148.15203,7.4042917 147.93673,7.3541876 147.59149,7.2738439 146.26935,6.7168905 146.03092,6.6260691 144.89027,6.1915619 143.75951,5.7267921 142.5922,5.3679804 141.90853,5.0932759 140.7135,4.5767204 140.01299,4.4649143 138.86435,4.281584 137.69668,4.2482783 136.54003,4.1252505 136.00528,4.0683717 135.47547,3.9650418 134.93917,3.9252366 133.78797,3.8397904 131.12953,3.821875 130.08598,3.8069456 128.97635,3.8207127 123.48098,3.8805268 122.69369,3.9297184 118.96432,4.1627382 116.69282,4.5738152 112.99009,5.1750176 111.45041,5.4250116 109.903,5.6359549 108.37551,5.9520544 106.95522,6.2459732 105.56073,6.6531569 104.15334,7.0037081 103.15026,7.253956 102.14951,7.5137022 101.14411,7.7544522 100.23628,7.971837 99.28713,7.5507254 98.367039,7.3931348 97.196186,7.1925949 96.055441,6.8332249 94.881971,6.6486129 90.395466,5.9427895 88.850252,6.0336429 84.133808,5.8485007 81.07678,5.969882 78.020692,6.1178497 74.962725,6.2126447 70.503777,6.3508691 68.768872,6.1005423 64.334069,6.8152141 60.256374,7.4723381 59.833533,7.9435623 56.242301,8.9786686 55.562018,9.1747471 54.866243,9.3124148 54.178215,9.4792881 53.439091,9.6183584 52.696321,9.7392894 51.960843,9.8964987 51.206238,10.057796 50.467939,10.293502 49.709284,10.434525 48.949019,10.575847 48.173597,10.620738 47.409946,10.742445 44.562326,11.196286 41.766484,11.892619 38.999744,12.699529 38.098285,13.059365 37.179099,13.377632 36.295364,13.779036 35.588709,14.100008 33.382643,15.292848 32.550679,15.802804 32.232885,15.997597 31.951475,16.249425 31.627696,16.434101 31.24704,16.651222 30.753894,16.623907 30.386207,16.866632 29.851969,17.10777 29.204541,17.379432 28.754501,17.724646 27.781403,18.471084 27.19461,19.459603 26.665266,20.531122 25.643145,22.293306 24.710672,24.122786 23.988709,26.028267 23.929448,26.212669 23.146583,28.639148 23.086865,28.861993 22.667878,30.42548 22.423112,32.042668 22.034276,33.613584 21.483297,36.443427 22.133951,33.336793 21.359848,36.304386 20.575362,39.311783 20.087204,42.404119 20.064771,45.515961 20.085994,46.340336 20.182234,47.166193 20.12844,47.989085 20.105045,48.346968 19.292106,52.106006 19.288838,52.12399 18.526363,56.319522 18.041797,60.57035 18.0727,64.840902 18.096261,66.782036 18.130849,68.72307 18.143384,70.664305 18.156207,72.650296 18.106145,74.636827 18.148773,76.622404 18.194872,78.769635 18.332477,80.913964 18.409511,83.060309 18.653629,89.86196 18.729656,96.693536 19.965826,103.41385 20.290611,105.41936 20.648884,107.41973 20.940182,109.43037 21.17966,111.08334 21.351983,112.74534 21.557883,114.40282 21.722307,115.92897 21.837916,117.46117 22.051153,118.98127 22.552008,122.5517 23.377758,126.06616 24.194228,129.57358 24.194668,130.41786 24.199789,134.06823 24.183721,134.61071 24.106835,137.20665 23.802776,140.4988 23.825888,143.03189 23.873732,148.27572 24.181777,149.44093 24.850238,154.67184 25.019262,156.34765 25.140045,158.02903 25.357311,159.69927 25.678011,162.16467 26.380364,165.16138 26.475528,167.71537 26.515054,168.77609 26.363024,169.83591 26.350716,170.89729 26.3262,173.01133 26.447351,175.9053 26.517978,178.01252 27.394773,185.43901 26.384887,178.03627 27.65562,184.66836 28.115725,187.0697 27.713723,189.55827 28.163689,191.96605 28.232401,192.57365 28.28113,193.18385 28.369823,193.78886 28.486076,194.58185 28.819184,196.06082 28.911087,196.90131 28.97746,197.50834 28.916997,198.50631 28.919056,199.08472 28.92054,199.50251 28.939524,199.92006 28.949758,200.33773 28.879755,201.19744 28.767487,202.0539 28.719245,202.91511 28.579135,205.41626 28.595857,207.93429 28.597743,210.43746 28.65606,211.12066 28.713596,211.80394 28.772694,212.48707 28.820858,213.04382 28.928184,213.59835 28.919527,214.15712 28.911576,214.67033 28.781279,215.1744 28.723161,215.68437 28.451598,218.06736 28.447412,220.45157 28.545787,222.84795 28.647043,223.90957 28.719346,224.97435 28.84955,226.03281 29.171325,228.6486 29.385929,229.37213 29.833818,231.89852 30.190143,233.90842 30.45637,235.94237 31.350283,237.8082 31.551192,238.28196 31.664634,238.80327 31.953012,239.22947 33.128701,240.96708 34.02648,241.62143 35.962751,241.7076 36.314242,241.73257 36.669993,241.71314 37.018195,241.76722 37.533818,241.8473 38.008742,242.12541 38.545772,242.1093 39.410227,242.23528 40.798043,242.32826 41.628681,242.39401 42.3034,242.43456 42.977024,242.50286 43.652839,242.51566 44.871444,242.53875 47.039077,242.43992 48.26445,242.37315 49.109084,242.32712 51.165114,242.20374 52.060916,242.06583 52.529623,241.99368 52.986876,241.86049 53.449857,241.75782 53.967607,241.89075 55.847604,234.56866 55.329851,234.43572 Z" />
    <path
       style="fill:#000000;fill-opacity:1;fill-rule:nonzero;stroke:none;stroke-width:0.264583"
       id="path142"
       d="M 137.51688,4.7890226 C 137.41029,2.4663994 136.41384,0.33410384 135.64767,-1.8221082 135.43755,-3.1396659 135.62913,-4.4765235 135.55014,-5.8067598 135.44261,-7.1468257 135.07675,-8.4084971 134.39159,-9.5648078 134.17247,-10.003599 134.50017,-9.1030117 134.44257,-9.2083288 134.19282,-9.6650639 134.15493,-10.251552 133.79863,-10.631079 131.91846,-12.633846 130.47803,-12.787458 128.00696,-13.147619 121.95515,-13.743277 115.83919,-13.790824 109.78008,-13.278144 109.07148,-13.245105 108.36186,-13.229529 107.6543,-13.179027 107.08245,-13.120676 106.5106,-13.062326 105.93875,-13.003975 106.13165,-12.97362 106.71195,-12.930354 106.51745,-12.912911 106.00405,-12.866865 105.48646,-12.908081 104.97108,-12.917186 101.23994,-12.983103 105.40917,-12.973817 101.69625,-12.965681 101.16932,-12.960356 100.64232,-12.959515 100.11546,-12.949704 98.848568,-12.926114 97.5812,-12.915008 96.315058,-12.865481 95.297708,-12.825686 94.257213,-12.681526 93.244502,-12.580632 92.79987,-12.536334 92.35628,-12.463199 91.90946,-12.459762 91.364336,-12.45557 90.821141,-12.525126 90.276983,-12.557807 87.460316,-12.644459 84.61485,-12.503619 81.850451,-11.923841 80.916284,-11.727919 80.000133,-11.45379 79.07085,-11.235873 79.556159,-11.223751 80.06657,-11.044978 80.526781,-11.199504 80.841862,-11.305301 79.869833,-11.308514 79.54933,-11.396534 78.822112,-11.596251 78.119371,-11.882211 77.386925,-12.061808 75.547523,-12.512834 72.600359,-12.977713 70.788979,-13.14864 69.512145,-13.269127 68.22777,-13.288325 66.947165,-13.358167 65.69449,-13.367 64.441395,-13.418268 63.189138,-13.384665 62.097345,-13.355368 61.010431,-13.224881 59.919647,-13.169592 58.777613,-13.111706 53.966252,-12.962583 52.0862,-12.796732 49.781814,-12.593448 49.64313,-12.502349 47.390203,-12.05247 45.109042,-11.676603 43.087602,-10.629065 41.09267,-9.525024 40.511798,-9.2035576 39.955504,-8.8357188 39.357755,-8.5468485 37.792347,-7.7903455 36.371228,-7.3612834 34.721982,-6.7937734 32.366423,-5.9429094 30.138804,-4.7801945 27.815937,-3.8524177 27.554832,-3.7481298 25.464729,-2.9989795 24.966879,-2.9097613 24.707307,-2.8632443 24.439466,-2.9092458 24.17576,-2.9089881 24.658126,-2.8977735 25.1407,-2.8934029 25.622859,-2.8753445 25.800875,-2.8686776 25.265386,-2.8542324 25.088436,-2.8748058 24.870656,-2.9001267 24.655768,-2.951122 24.445219,-3.0122661 24.123967,-3.1055587 23.814577,-3.2360555 23.49575,-3.3373269 22.277302,-3.724353 22.327202,-3.6826928 21.021107,-3.9800728 19.814523,-4.0372069 18.609289,-4.1521721 17.401353,-4.1514754 15.646437,-4.1504631 13.23599,-3.3826614 11.625848,-2.6608045 11.108356,-2.3933075 11.099745,-2.4087565 10.568528,-2.0311055 10.429183,-1.9320424 10.024602,-1.6174741 10.167506,-1.7113302 10.753,-2.0958681 10.842597,-2.0636668 10.323747,-1.9802784 9.8307368,-2.0112931 10.189158,-2.0190933 9.3937306,-1.7654756 9.0924636,-1.6694183 8.524995,-1.5244711 8.2655602,-1.3973509 7.8753368,-1.2061459 7.2967674,-0.80261882 6.9111092,-0.54245134 5.513775,0.63467027 4.9738872,2.4022742 4.6836679,4.1415252 4.5783267,4.7728237 4.6037994,5.4202634 4.5166335,6.054327 4.1244895,8.9068684 3.5360308,11.728986 3.0319477,14.563888 1.5279465,25.176239 0.05952416,35.786806 -0.46717584,46.50428 -0.66709501,50.572304 -0.52519272,54.651997 -0.71254564,58.720619 -2.8780774,105.74808 -0.55569283,38.301882 -2.0242475,84.118206 -1.9714834,93.643473 -2.1740228,95.654941 -1.3828483,104.68305 -1.1766883,107.03555 -0.83104714,109.37381 -0.5326731,111.7164 -0.0427105,115.56318 -0.06613643,117.13184 1.222798,120.48688 1.4633488,121.11302 1.8593707,121.66775 2.1776571,122.25818 6.3307565,127.89734 0.37018468,120.93494 8.825286,125.34689 7.5760709,125.29494 6.3268558,125.24299 5.0776406,125.19104 4.9522848,125.20262 4.7438304,125.10719 4.7015733,125.22578 4.2644861,126.45237 4.5812283,129.70419 4.6064958,130.40804 6.3053107,146.43506 3.666069,121.13473 5.3995983,139.28784 5.548608,140.84823 5.7863451,142.39916 5.9436018,143.95875 6.1154029,145.66258 6.1635523,147.37915 6.3866635,149.07702 6.7930862,152.1699 7.593976,155.46171 8.2718451,158.50522 9.0094796,162.09829 10.034428,165.62054 10.984793,169.16048 11.159303,169.8105 11.34028,170.45889 11.532795,171.10381 11.63093,171.43256 11.797204,171.7429 11.856544,172.08081 11.891348,172.27901 11.825554,172.48207 11.810059,172.68269 11.144857,174.67717 10.606132,176.70208 10.52575,178.81521 10.508331,179.27314 10.53562,179.73169 10.540554,180.18992 10.577438,180.59392 10.65324,180.99624 10.651206,181.40191 10.645386,182.56308 10.42463,183.71509 10.392354,184.87583 10.335405,186.92384 10.486582,188.98933 10.560313,191.03544 10.570277,191.68739 10.571384,192.33954 10.590205,192.9913 10.682193,196.17691 10.673051,193.36947 10.683882,196.47637 10.687905,197.63033 10.601397,198.78346 10.606783,199.93741 10.609604,200.54192 10.666726,201.14495 10.696697,201.74872 10.738464,204.05535 11.591259,206.1553 12.45139,208.24918 12.618237,208.85533 12.90402,209.45462 12.926078,210.0946 12.950175,210.79375 12.822741,211.49001 12.785735,212.18859 12.760161,212.67137 12.753378,213.15495 12.737199,213.63813 12.73551,215.88427 12.587534,218.08983 12.794064,220.33165 13.056534,222.10496 13.425494,223.60958 15.49794,224.50372 16.457437,224.91769 17.587065,224.44258 18.631875,224.42326 19.035257,224.41579 19.575565,224.45552 19.965356,224.47759 20.942217,224.38191 21.920588,224.45945 22.897745,224.4708 23.247827,224.47487 23.60947,224.54443 23.947943,224.45493 24.263566,224.37147 22.667339,224.57804 22.968534,224.45208 23.277318,224.32295 23.637909,224.44711 23.972597,224.44462 25.092531,224.44583 26.207985,224.2056 27.327457,224.26877 29.623131,224.25112 28.781073,224.28482 29.855437,224.23625 30.350774,224.09452 28.346341,217.08939 27.851004,217.23113 V 217.23113 C 27.053415,217.24412 27.491134,217.23581 29.164399,217.2305 28.869296,217.25869 28.624482,217.18044 28.331504,217.12486 27.599089,216.98591 26.868162,216.83146 26.123695,216.76991 23.089022,216.59928 20.030787,216.56114 17.056809,217.26675 16.749516,217.36941 16.437985,217.46017 16.134931,217.57474 15.954418,217.64298 15.41678,217.78821 15.607964,217.8145 16.45635,217.93115 17.421027,217.45266 18.176743,217.85548 24.030172,220.9755 19.069591,219.09475 20.297603,220.96222 20.365819,221.06596 20.362294,220.72248 20.394639,220.6026 20.860968,218.31639 21.05891,216.00291 21.203572,213.67494 21.192942,213.08625 21.212798,212.49621 21.171682,211.90885 21.020841,209.75409 20.560763,207.53984 19.520387,205.63313 19.150308,204.95714 19.239766,204.70942 19.232176,203.94364 19.209859,201.69187 19.204646,204.45298 19.22207,201.58549 19.231869,200.47845 19.207193,199.37126 19.217553,198.26422 19.234191,196.48633 19.374902,194.71201 19.415987,192.9356 19.431792,192.25221 19.415848,191.56845 19.415779,190.88487 19.404894,188.76618 19.434188,186.62506 19.188632,184.51626 19.110646,183.84654 18.970682,183.1855 18.861707,182.52011 18.764354,182.04508 18.628825,181.57629 18.56965,181.095 18.536741,180.82735 18.581244,180.55579 18.58704,180.28618 18.698144,178.13704 18.985155,176.03005 19.764475,174.0051 19.88658,173.50077 20.543565,170.83503 20.595564,170.41022 20.86883,168.17779 20.695243,166.81227 20.440608,164.52458 20.032074,160.85425 19.889568,160.50238 19.184017,156.73909 17.938256,149.0192 19.022104,156.1538 17.991135,147.98597 17.778294,146.29974 17.494868,144.62271 17.294564,142.93494 17.099642,141.29253 17.044507,139.63388 16.805675,137.99728 16.457866,135.6139 15.422181,131.08387 14.88647,128.64648 13.994656,126.17147 13.343339,123.92393 11.967137,121.67104 11.520407,120.93973 11.141432,120.01877 10.361838,119.66294 8.8453636,118.97076 7.1165925,118.56745 5.4547838,118.69857 3.5259473,118.85075 12.045892,119.09496 10.536529,121.50356 10.74592,121.08191 11.015171,120.68502 11.164702,120.23863 12.251327,116.99473 12.152575,115.72964 12.768769,112.00289 13.145531,109.72422 13.617298,107.4616 13.974257,105.17975 15.46378,95.658037 15.356743,95.089309 16.35252,84.876501 18.027445,59.571979 16.50269,85.322121 17.485105,59.281072 17.641317,55.140341 18.097594,51.010888 18.142895,46.86746 18.190083,42.551511 18.075127,38.229291 17.762335,33.924433 17.259343,27.001885 16.123934,21.052333 14.98475,14.310193 14.571357,12.489494 14.170485,10.665907 13.74457,8.848097 13.512854,7.8591316 13.235259,6.8811287 13.011943,5.8902324 12.910056,5.4381373 12.927155,4.9570147 12.769439,4.5212433 12.714936,4.3706475 12.545615,4.1354213 12.403704,4.2096576 11.779514,4.5361812 11.773516,4.7547299 11.728727,5.1616461 12.281885,4.904147 12.876408,4.7381064 13.45188,4.5289073 13.76509,4.394078 14.322454,4.00794 14.628331,3.9654046 14.817701,3.9390706 14.458394,5.0705654 15.263234,4.0966982 16.34934,3.9551538 17.411982,3.7684614 18.507367,3.7198554 18.827239,3.7056618 19.704826,3.8912408 19.466965,3.6769013 19.161547,3.4016849 18.654573,3.5499508 18.248376,3.4864754 18.907171,3.4503225 19.075257,3.398562 19.717402,3.5243606 20.586796,3.6946779 20.650587,3.8265086 21.550089,4.1760632 23.848451,5.0692272 22.935073,4.6691605 26.561306,4.9527015 27.978602,4.8492595 28.999471,4.8220034 30.403374,4.5214042 33.81054,3.791872 37.061364,2.3823832 40.242,1.0072678 41.107672,0.5068983 41.988168,0.03134091 42.839018,-0.49384076 43.496222,-0.89949723 44.105062,-1.3804298 44.763711,-1.783736 46.532397,-2.8667432 48.474592,-3.5635136 50.546595,-3.7275103 53.088955,-3.8510122 51.791568,-3.8251402 54.590719,-3.7888505 55.445776,-3.777765 56.302295,-3.8057669 57.155873,-3.7542581 57.267972,-3.7474937 57.351225,-3.6274846 57.46289,-3.6155304 59.896332,-3.3550174 61.592179,-3.3708726 64.07904,-3.3104592 67.529138,-3.2812812 70.968332,-3.3199048 74.412112,-3.5647074 75.150744,-3.6172137 75.882412,-3.7701476 76.622785,-3.7836668 78.298446,-3.814264 79.941006,-2.9874376 81.640774,-3.4694283 82.200699,-3.4691648 82.761181,-3.4436386 83.320548,-3.4686382 86.454791,-3.6087163 89.54074,-4.3005105 92.680527,-4.3711193 93.255572,-4.4494473 93.82794,-4.5508849 94.40566,-4.6061034 95.813408,-4.7406554 97.242028,-4.6264986 98.648341,-4.7663068 98.870716,-4.7884138 97.754928,-4.7932263 97.978385,-4.790822 98.499712,-4.7852131 99.020854,-4.7680678 99.542085,-4.7566907 102.40333,-4.7142632 105.25271,-4.795544 108.11541,-4.6664406 108.72749,-4.6388369 109.33493,-4.5419338 109.94671,-4.5084486 110.67739,-4.4684558 111.40966,-4.466881 112.14114,-4.4460972 115.27966,-4.2635175 113.93838,-4.3021302 117.28746,-4.2819513 118.90944,-4.2721783 121.45107,-4.228557 123.06433,-4.3995646 123.20933,-4.4149356 123.29742,-4.5983609 123.44143,-4.6212844 124.17784,-4.7385086 124.92722,-4.7500053 125.67012,-4.8143659 126.25647,-4.8734035 126.84819,-4.892722 127.42918,-4.9914791 127.8272,-5.0591349 128.55595,-4.9103036 128.59721,-5.3119178 128.65944,-5.9176911 127.89783,-6.3136708 127.62071,-6.8559272 127.45927,-7.1718341 127.59038,-8.0582409 127.29101,-7.8678766 127.04934,-7.7142029 127.70194,-6.4980869 127.82552,-6.2482443 127.89194,-6.1472121 127.93393,-6.024932 128.02478,-5.9451475 128.11221,-5.8683643 128.10939,-6.2940776 128.10364,-6.3247944 128.08029,-6.4494459 128.03679,-5.5719363 128.03004,-5.9515229 127.70392,-3.9926527 127.47535,-2.0866492 127.93439,-0.11352351 128.43448,2.3483284 129.01073,4.8640404 130.37509,7.0089399 130.53207,7.5139404 137.67385,5.294023 137.51688,4.7890226 Z" />
    <path
       style="fill:#000000;fill-opacity:1;fill-rule:nonzero;stroke:none;stroke-width:0.264583"
       id="path156"
       d="M 66.860835,51.645904 C 66.147761,54.105412 66.096398,56.686994 66.125677,59.229069 66.135717,60.100588 66.139932,60.973596 66.208197,61.842496 66.27464,62.688205 66.422296,63.525561 66.529346,64.367094 67.041278,67.757854 67.730195,71.128535 68.817333,74.385119 69.24994,75.681008 69.739054,76.957422 70.183459,78.249311 71.428313,80.749906 71.36739,83.561662 71.724683,86.26898 72.160677,89.57262 72.172882,89.339429 72.840114,92.602147 73.38161,94.442885 73.646484,96.355571 74.173375,98.199899 74.821091,100.46714 75.092675,100.51184 75.684739,102.72327 75.900562,103.52939 76.024607,104.35751 76.214998,105.17001 76.414431,106.02109 76.641036,106.86557 76.854054,107.71336 77.301446,109.59253 77.60074,111.50373 78.032953,113.38604 78.249305,114.32827 78.557635,115.24896 78.747741,116.19683 79.212444,118.51385 79.431519,120.87405 79.838771,123.20185 80.041918,124.36302 80.28983,125.51591 80.515361,126.67294 81.299872,130.75159 80.860933,128.81927 81.798585,132.47745 81.877029,133.1422 91.277981,132.03287 91.199538,131.36812 V 131.36812 C 91.076506,127.45484 91.214809,129.52568 90.727672,125.15966 90.529073,123.91976 90.385539,122.66977 90.13188,121.43996 89.057556,116.23127 89.421064,119.22556 88.213707,114.41111 87.979852,113.47859 87.862578,112.52029 87.655507,111.58146 87.000844,108.61329 86.893521,108.44106 86.037173,105.5734 85.771571,104.70883 85.505969,103.84426 85.240367,102.97968 84.948989,102.18809 84.621903,101.40873 84.366237,100.60488 83.817837,98.880662 83.849336,98.409412 83.557344,96.605467 82.418882,89.572014 83.80183,98.459659 82.648022,90.96414 82.064645,87.96847 82.04334,87.512116 81.193049,84.55708 80.383514,81.743692 79.205449,79.026426 78.687963,76.134147 77.617867,71.946711 76.408761,67.785077 75.644311,63.528889 75.510439,62.027506 75.346538,60.528813 75.222155,59.026615 75.017783,56.558354 75.104635,54.039126 74.364968,51.645904 74.364968,51.115282 66.860835,51.115282 66.860835,51.645904 Z" />
    <path
       style="fill:#000000;fill-opacity:1;fill-rule:nonzero;stroke:none;stroke-width:0.264583"
       id="path158"
       d="M 74.047124,59.298543 C 74.288099,59.159832 74.554465,59.058008 74.770048,58.882412 75.1529,58.570571 75.471495,58.187142 75.829342,57.846896 77.081517,56.656311 78.33416,55.384062 79.793305,54.442537 80.144815,54.215725 80.531993,54.049662 80.901335,53.853225 79.865621,53.46361 83.100047,53.550499 82.550507,53.62717 82.030958,53.699658 81.480937,53.53396 80.977726,53.682156 80.709735,53.761078 81.528305,53.780052 81.799178,53.848433 82.655388,54.064593 83.501216,54.32045 84.356907,54.538662 85.455029,54.878633 86.604021,54.945068 87.718206,55.205214 87.890809,55.245515 88.071356,55.266912 88.232241,55.341297 88.262041,55.355077 88.216972,55.407692 88.224994,55.439529 88.313619,55.791308 88.422225,56.137748 88.520843,56.486858 89.311198,58.613116 90.032625,60.765134 90.813648,62.894551 91.079512,63.619408 91.402608,64.32348 91.643606,65.056982 92.007223,66.163692 92.45039,68.132499 92.722048,69.276581 93.121267,71.218646 93.493636,73.148832 93.631466,75.12827 93.702411,76.147138 93.782675,77.050888 93.623176,78.056964 93.576618,78.350628 93.460942,78.629067 93.379823,78.915121 92.899022,79.658648 93.201978,79.342019 92.516792,79.834802 92.310819,79.982937 92.128894,80.171173 91.900226,80.28108 91.679698,80.387075 91.42737,80.407109 91.191407,80.47184 90.704703,80.605356 90.213113,80.722615 89.732243,80.875819 89.174848,81.053405 88.629806,81.267664 88.078587,81.463588 86.431611,82.089288 84.828329,82.828436 83.317926,83.737986 82.947035,83.961334 82.586337,84.201607 82.230112,84.447675 81.948249,84.642377 81.703687,84.892834 81.404507,85.059712 81.289463,85.123879 81.144731,85.103588 81.014842,85.125527 80.274011,84.668724 80.617675,84.960626 82.298743,84.806622 82.442295,84.793472 82.001647,84.788234 81.867678,84.841465 81.834539,84.854634 81.991633,84.891255 82.078824,85.137756 82.395027,86.031707 82.685344,86.934605 82.988604,87.833027 82.848235,88.492593 82.477884,89.143371 82.567496,89.811727 82.603225,90.078196 83.032816,90.115553 83.29936,90.150732 83.78586,90.214941 84.280025,90.106681 84.770724,90.102512 85.364856,90.097463 85.959192,90.141366 86.553065,90.123088 86.865417,90.113473 90.228752,89.855433 90.484369,89.836097 92.202615,89.679543 93.918481,89.51974 95.643101,89.456135 96.127603,89.438265 96.621885,89.513716 97.097092,89.417571 97.36734,89.362895 96.548857,89.358083 96.274741,89.328338 96.459668,89.306981 96.644596,89.285621 96.829524,89.264261 96.852334,89.169829 96.756176,89.232157 96.753613,89.257432 96.621123,90.563744 96.721786,91.158509 96.864552,92.643774 97.096327,95.055051 97.231506,95.830989 97.56568,98.206469 98.586474,103.70687 97.5357,97.877637 98.331887,102.75646 98.41813,103.28494 98.558645,103.8048 98.621298,104.33659 98.802501,105.8746 98.654094,107.48525 98.627527,109.02783 98.592237,111.68282 98.779228,114.32612 99.7411,116.81795 100.56523,118.29888 100.57794,118.67404 102.27645,119.72569 103.02755,120.19074 104.65632,120.52986 105.56068,120.59994 106.90182,120.70385 110.06964,120.79682 111.73731,120.85068 113.5097,120.88998 115.25778,120.61518 117.00369,120.35914 117.56812,120.19482 115.24428,112.21248 114.67984,112.3768 V 112.3768 C 112.89923,112.26256 111.11504,112.12748 109.33032,112.26908 108.66001,112.32947 107.98969,112.38985 107.31938,112.45023 107.46255,112.52519 107.88905,112.59461 107.74891,112.67511 107.4117,112.86881 106.95162,112.70344 106.59776,112.86474 105.88661,113.18889 107.04575,114.33001 107.07768,114.9268 106.92104,112.96635 107.20114,110.99504 107.15437,109.02992 107.14916,108.71961 107.10227,106.09878 107.10796,105.75844 107.1298,104.45339 107.22328,103.47732 107.32167,102.16944 107.34108,101.40613 107.23703,97.970852 107.21881,97.299771 107.1267,96.244644 107.10054,95.181673 106.94249,94.134391 106.43958,90.801874 105.47799,87.695925 103.54737,84.904042 103.10312,84.261602 102.61344,83.635579 102.02245,83.124875 101.45056,82.630678 100.74013,82.324368 100.09896,81.924114 99.543194,81.752873 99.008611,81.483342 98.43165,81.410391 97.284711,81.265375 96.121605,81.310492 94.966074,81.275125 92.548465,81.201129 90.125623,81.302428 87.712731,81.44425 85.612046,81.624651 83.534836,81.730217 81.473468,82.211983 80.420246,82.458133 78.394334,83.007688 77.606016,83.789249 76.788835,84.599424 76.310129,85.69118 75.662183,86.642148 75.907052,87.841221 75.935045,89.105998 76.396788,90.23937 76.598739,90.735064 77.12802,91.035081 77.573054,91.332467 79.784479,92.810207 82.670718,92.598702 85.074986,91.747222 87.626512,90.629384 90.346129,89.929575 92.875186,88.744019 93.484268,88.457118 94.111452,88.20587 94.702425,87.883316 96.17594,87.07907 98.185395,85.745549 99.310157,84.486744 100.6068,83.035573 100.66544,82.638484 101.52981,80.920779 101.73716,80.230421 102.0004,79.554437 102.15185,78.849703 102.91368,75.304726 102.28181,71.24475 101.71216,67.71556 101.18077,64.809329 101.37437,65.534748 100.58502,62.611155 100.35282,61.751156 100.14907,60.881429 99.857424,60.039731 98.947178,57.412728 97.649243,54.922094 96.229568,52.540876 95.010366,51.038191 94.456532,50.1661 92.957056,48.990562 91.56398,47.898436 89.808864,47.595382 88.144627,47.180161 86.670257,46.751131 86.783753,46.76423 85.223651,46.39751 84.642215,46.260837 84.069916,46.060015 83.47507,46.006133 79.983128,45.689834 78.469142,45.789632 75.405786,47.152279 74.716864,47.55969 73.992448,47.912321 73.339015,48.374516 71.038888,50.001468 68.83759,52.507496 67.599358,55.051226 67.341212,55.581539 67.171196,56.150388 66.957116,56.699969 66.773371,57.20131 73.863379,59.799883 74.047124,59.298543 Z" />
    <path
       style="fill:#000000;fill-opacity:1;fill-rule:nonzero;stroke:none;stroke-width:0.264583"
       id="path166"
       d="M 114.12735,129.79859 C 112.66649,128.68252 110.93719,127.99595 109.20915,127.41117 107.28226,126.82927 107.07403,126.64826 103.98049,127.67296 103.33215,127.88772 102.97365,128.59935 102.5191,129.10909 101.47964,130.27475 100.7785,131.64458 100.09565,133.03179 99.477469,134.30456 99.097784,135.69404 98.393429,136.9291 98.159995,137.33841 97.888027,137.72452 97.635323,138.12223 96.952847,139.4434 96.755655,139.70419 96.273849,141.15347 95.764129,142.68672 96.207015,142.5414 95.25669,143.15997 93.816997,144.8241 93.550278,146.28993 94.227739,148.42616 94.573729,149.51717 95.755591,150.55275 96.607608,151.27485 98.16345,152.56506 99.643609,153.92475 101.32922,155.0513 101.78435,155.31604 102.2204,155.61672 102.69461,155.84553 105.17169,157.04071 107.92469,157.08501 110.61521,156.94447 111.05843,156.92132 111.49123,156.80125 111.92924,156.72964 113.34499,156.36483 114.83553,156.17903 116.19288,155.60835 116.53921,155.46274 117.67498,154.84887 118.03307,154.65815 119.06148,154.23093 119.95299,153.56566 120.86058,152.93636 121.14045,152.74231 121.4447,152.5811 121.70613,152.36282 122.40196,151.78183 122.85791,151.19618 123.44307,150.51516 125.26989,148.39667 126.73561,145.93648 127.63191,143.27861 128.14639,141.75298 128.20261,141.1465 128.47926,139.61551 128.6566,136.96348 128.23253,134.61681 125.76674,133.12793 125.78245,133.13764 125.82421,133.17238 125.81388,133.15707 125.70255,132.99214 125.35082,132.625 125.27247,132.53421 124.63588,131.79662 124.02329,131.04164 123.38067,130.30861 121.79077,128.77288 120.00011,127.47717 117.85465,126.85541 117.49912,126.75237 117.13255,126.69209 116.7715,126.61044 115.67886,126.40608 114.56404,126.40194 113.45848,126.29556 111.89149,126.17507 110.3196,126.34038 108.75297,126.29108 106.96766,126.30336 110.93,126.22736 109.27487,126.31388 109.14899,126.32046 109.02308,126.32656 108.89718,126.33289 108.39483,126.19615 106.46104,133.30054 106.9634,133.43728 V 133.43728 C 108.22776,133.53771 109.49588,133.54235 110.76362,133.48973 111.61256,133.42775 115.16909,133.23004 111.43199,133.26861 112.02046,133.11596 113.0889,133.82258 113.73612,133.63472 114.98941,133.70954 116.13298,134.36151 117.04057,135.19488 118.53714,136.48316 119.80002,138.04573 121.49264,139.09848 121.5956,139.13096 121.73789,139.28313 121.8015,139.19591 121.86699,139.10612 121.68438,139.00691 121.63019,138.90988 121.37215,138.44783 121.08931,137.99811 120.86491,137.51881 120.78541,137.34902 120.83961,137.1219 120.72399,136.97433 120.51711,136.71029 120.35412,139.30258 120.31469,137.89363 119.32987,140.62314 117.93003,143.18173 117.09506,145.96824 116.05605,146.95774 114.7389,147.61874 113.55251,148.41228 112.98724,148.61965 112.44201,148.69199 111.84791,148.8052 110.97362,148.97181 110.10004,149.17293 109.20542,149.18636 108.90376,149.19893 108.02414,149.10238 108.30045,149.22409 108.65522,149.38035 109.10434,149.1471 109.46103,149.29895 109.67876,149.39164 108.99812,149.41314 108.76159,149.4204 108.57844,149.42602 107.41925,149.24605 107.28521,149.22196 107.03396,149.1768 106.78538,149.11784 106.53547,149.06579 106.12558,148.84178 105.49655,148.50761 105.10211,148.25405 104.0832,147.59905 103.29481,146.63835 102.30474,145.93919 102.02008,145.72559 101.39091,145.1727 101.18078,145.28419 101.05971,145.34842 101.15148,145.55693 101.14557,145.69386 101.12291,146.21913 101.21429,146.75825 101.0951,147.27031 100.73839,148.80275 100.00414,148.36345 100.59137,148.67262 101.56999,147.96994 102.04621,147.72312 102.82538,146.67134 104.1118,144.93487 104.67504,142.82004 105.31895,140.79699 105.38833,140.43035 105.42325,140.05549 105.52708,139.69709 105.58584,139.49429 105.70694,139.31496 105.80283,139.12686 106.32801,138.09664 107.06901,137.21889 107.64302,136.2175 108.19183,135.19853 108.2861,135.10511 108.68547,134.0733 108.76123,133.87756 109.0018,133.64221 108.877,133.47344 108.40109,132.82991 104.72633,140.98966 105.02561,133.70555 106.5866,134.64261 108.16811,135.62364 109.98619,135.96435 110.42218,136.25717 114.56333,130.09142 114.12735,129.79859 Z" />
    <path
       style="fill:#000000;fill-opacity:1;fill-rule:nonzero;stroke:none;stroke-width:0.264583"
       id="path168"
       d="M 118.66729,162.71042 C 118.38252,165.79238 119.30557,168.75523 120.35389,171.61099 120.4838,172.00964 120.65963,172.39616 120.7436,172.80694 120.82355,173.19803 120.80671,173.6028 120.84235,174.00038 120.88987,174.53061 120.94159,175.06046 120.99307,175.59032 121.155,177.25671 121.30006,178.92418 121.46808,180.58998 121.50715,181.07998 121.5252,181.5721 121.5853,182.05996 121.70419,183.0251 121.93067,183.97477 122.05457,184.93928 122.12706,185.50364 122.15552,186.0731 122.22903,186.63733 123.0286,192.7743 121.97491,183.7755 122.68386,189.97497 122.87676,192.27266 122.89018,194.58974 123.18836,196.8788 123.29354,197.68619 123.46375,198.48378 123.60676,199.28534 124.0494,201.76616 124.03357,201.62565 124.519,204.07541 125.27898,206.59399 125.78607,209.18295 126.50119,211.71299 127.44263,215.04374 126.54069,211.42566 127.19367,214.12542 127.34095,214.93242 127.60588,215.71229 127.60816,216.53957 127.60915,216.89752 127.55963,217.25506 127.57179,217.6128 127.59063,218.16702 127.75877,219.46536 127.8276,220.03509 128.12587,221.88003 128.52183,223.72902 129.18717,225.48087 129.5721,226.4944 129.77144,226.79833 130.27215,227.73527 130.60675,228.21137 130.91842,228.71425 131.27575,229.17475 131.31392,229.22394 131.42041,229.36056 131.41567,229.29848 131.391,228.975 131.28028,228.66392 131.21259,228.34664 131.25727,228.84485 138.30309,228.213 138.25841,227.71479 V 227.71479 C 138.18533,227.34712 138.10314,226.98114 138.03917,226.61178 138.02381,226.52307 138.08806,226.43241 138.07245,226.34374 138.02362,226.06637 137.79527,225.26883 137.71494,224.97999 137.59929,224.63698 137.14396,223.28056 137.05793,223.05531 136.56889,221.77484 135.90529,220.56412 135.7809,219.17002 135.64611,218.20638 135.46454,217.22405 135.38296,216.25459 135.29436,215.20163 135.39671,214.13691 135.24699,213.08692 135.16469,212.15268 135.11959,211.21441 135.00023,210.28417 134.66624,207.68119 133.91716,205.15959 133.51032,202.56945 133.24735,201.26979 132.87732,199.55442 132.69995,198.23436 132.59838,197.47836 132.56737,196.71419 132.47273,195.95729 132.174,193.56822 131.72453,191.19929 131.26133,188.83794 131.02832,187.65536 130.82458,186.52143 130.52571,185.35596 130.41278,184.91559 130.2347,184.49196 130.14533,184.04621 129.88538,182.74978 130.10746,181.39982 130.01167,180.0952 129.86775,176.5042 129.49222,172.92034 128.24437,169.5216 127.65033,167.24491 127.2082,164.82603 126.17142,162.71042 126.17142,162.1798 118.66729,162.1798 118.66729,162.71042 Z" />
    <path
       style="fill:#000000;fill-opacity:1;fill-rule:nonzero;stroke:none;stroke-width:0.264583"
       id="path170"
       d="M 113.90908,172.83897 C 116.78399,172.21656 114.28862,172.80028 117.42276,171.92409 118.14034,171.72348 118.86954,171.56514 119.5844,171.35501 121.64377,170.74965 123.64454,169.97233 125.69546,169.33955 128.059,168.80477 130.44703,168.39245 132.81787,167.89354 132.47576,167.70534 134.23861,167.75085 133.89303,167.84706 133.51362,167.9527 133.07873,167.78762 132.71508,167.93885 132.4489,168.04954 133.29117,167.96231 133.57903,167.97764 134.59199,168.0316 134.38236,168.01994 135.27168,168.10633 136.27049,168.12378 137.05627,168.58634 137.85362,169.14307 138.01221,169.25381 138.18287,169.35574 138.30985,169.50165 138.4435,169.65522 138.51818,169.85148 138.62235,170.02639 139.53414,171.37717 139.95112,172.97426 140.30538,174.5465 140.39045,174.92404 140.49849,175.29935 140.53444,175.68468 140.57112,176.07785 140.52621,176.4744 140.52209,176.86925 140.46807,178.26844 140.28107,179.6588 140.12894,181.05018 140.08447,181.45692 140.1229,181.88643 139.97522,182.26801 139.79668,182.72935 139.42069,183.08841 139.17416,183.51728 138.83342,184.11004 138.53466,184.72596 138.21492,185.3303 136.99876,187.10217 135.79019,188.88146 134.23409,190.37862 133.87999,190.71931 133.53486,191.08478 133.11123,191.33377 132.59001,191.6401 132.00029,191.5762 131.43768,191.57681 131.97276,191.53552 132.50632,191.46189 133.04292,191.45294 133.13944,191.45133 132.85326,191.50288 132.77173,191.55456 132.62636,191.6467 132.71086,191.77383 132.751,191.89616 133.25695,193.43801 132.99741,191.99491 132.76808,195.24576 131.32699,195.83841 129.8859,196.43107 128.44481,197.02373 128.31806,196.97693 127.96156,196.79588 128.06455,196.88335 129.67422,198.25042 132.23169,198.78368 134.20539,199.32196 136.53755,199.99084 138.99601,199.95683 141.34944,200.50668 141.54798,200.55306 143.13804,201.04097 143.44479,201.13453 143.80339,201.0679 144.4906,201.77947 144.86554,201.7887 144.91375,201.78989 144.85626,201.6926 144.85533,201.64439 144.85481,201.61775 144.86927,201.69763 144.86428,201.7238 144.83721,201.86601 144.79474,202.00485 144.75996,202.14538 144.75702,202.70378 144.71705,203.26321 144.75114,203.82058 144.83848,205.24871 145.11674,206.72785 145.36001,208.13342 145.65754,209.85243 146.01137,211.55661 146.34454,213.26861 146.38557,213.61159 146.4266,213.95458 146.46762,214.29756 146.48951,214.53828 146.50618,214.77954 146.53329,215.01973 146.54682,215.13961 146.52181,215.47715 146.58948,215.37727 146.66964,215.25893 146.71938,214.91076 146.58152,214.94853 146.42123,214.99244 145.39269,216.28648 145.37139,216.31236 145.1426,216.62292 144.92714,216.94376 144.68502,217.24404 144.40322,217.59355 144.08952,217.91625 143.8009,218.26015 143.13171,219.01222 142.55988,219.84297 141.91615,220.61541 141.18664,221.49076 140.97017,221.66631 140.16362,222.46303 139.92753,222.63585 138.75868,223.52298 138.43484,223.64406 138.17089,223.74275 136.24166,223.92131 136.13701,223.93168 134.34407,224.10934 135.16416,224.07654 133.31382,224.0054 133.52408,223.98014 134.15363,223.96365 133.9446,223.92963 133.4146,223.84337 132.87143,223.88488 132.33585,223.84623 130.26904,223.69704 128.19758,223.55019 126.13295,223.37416 124.85632,223.11934 123.53682,223.13184 122.25881,222.89053 121.83795,222.81106 121.47164,222.65683 121.06851,222.51129 120.22358,222.03883 119.29379,221.74756 118.42749,221.3246 117.06016,220.657 118.44504,221.28082 117.5159,220.86888 117.06555,220.62496 117.26618,220.72826 116.91678,220.55365 116.59085,220.14065 110.75017,224.74997 111.0761,225.16297 V 225.16297 C 111.70327,225.92184 111.37135,225.5482 112.07445,226.2816 112.35589,226.52456 112.61846,226.79128 112.91878,227.01047 113.6742,227.56181 114.60741,228.04691 115.49415,228.347 115.68683,228.41221 115.89565,228.42511 116.08513,228.49911 116.36625,228.6089 116.62774,228.76348 116.89904,228.89567 118.96579,229.85833 120.93285,230.9547 123.27079,231.12669 127.44359,231.78502 131.61543,232.55993 135.86703,232.26967 137.31901,232.09209 138.6788,231.98963 140.08889,231.56747 142.61603,230.8109 144.86556,229.32155 146.77959,227.53933 147.77171,226.51565 148.16061,226.15642 149.07042,225.04594 150.06224,223.83537 150.87378,222.52926 151.72084,221.21917 151.94004,220.88014 152.17043,220.54847 152.39522,220.21313 153.75639,217.92224 154.72099,215.4312 154.73986,212.73274 154.74887,212.15187 154.78199,211.57087 154.76688,210.99012 154.67572,207.4867 153.90221,203.99096 152.5011,200.78104 151.55156,198.04245 150.78882,196.23124 148.26557,194.54768 147.80717,194.26917 147.36886,193.95452 146.89036,193.71216 144.84607,192.67669 142.02862,191.85083 139.77886,191.45093 139.06796,191.32456 138.34619,191.26977 137.62986,191.17918 137.1928,191.14599 134.78682,190.95472 134.18879,190.93782 134.14709,190.93665 132.74483,190.99415 132.58444,190.94219 132.1356,190.79677 131.76894,190.25842 131.30402,190.33885 129.60402,190.63293 128.03856,191.45364 126.40584,192.01103 126.2898,193.00743 126.02026,193.99779 126.05771,195.00022 126.08642,195.76859 126.98984,196.9708 127.4812,197.45146 129.84226,199.76109 131.46592,199.36861 134.80633,199.30293 135.57855,199.10574 136.38006,198.99989 137.12299,198.71134 140.7308,197.3101 143.54589,194.41968 145.44616,191.11702 145.95075,190.24004 146.33379,189.29852 146.77761,188.38927 147.06606,187.58838 147.41192,186.80589 147.64296,185.98659 147.87597,185.16033 147.99033,184.30512 148.16631,183.46487 148.63803,181.21264 148.96147,178.95323 148.96572,176.64377 148.90187,175.52334 148.8481,173.91815 148.64042,172.80015 148.18657,170.357 147.13086,168.07481 145.68487,166.0655 144.93613,165.04447 144.47973,164.31444 143.56216,163.45422 142.06573,162.05131 140.15639,161.15432 138.18409,160.66036 137.70318,160.57876 137.22666,160.46466 136.74136,160.41556 136.39294,160.3803 136.04098,160.41065 135.69079,160.4081 134.19587,160.39723 133.61876,160.37943 131.77311,160.48555 131.47262,160.50282 131.18015,160.59597 130.88002,160.61885 130.65251,160.63619 130.42375,160.61015 130.19562,160.6058 127.31596,160.67365 124.40403,160.70905 121.59962,161.44577 117.74041,162.41824 113.74723,163.56545 110.61554,166.14278 110.14204,166.37567 113.43559,173.07185 113.90908,172.83897 Z" />
  </g>
</svg>
