<?xml version="1.0" encoding="UTF-8" standalone="no"?>
<!-- Created with Inkscape (http://www.inkscape.org/) -->

<svg
   width="201.66998mm"
   height="233.12938mm"
   viewBox="0 0 201.66998 233.12938"
   version="1.1"
   id="svg259"
   xmlns="http://www.w3.org/2000/svg"
   xmlns:svg="http://www.w3.org/2000/svg">
  <defs
     id="defs256" />
  <g
     id="layer1"
     transform="translate(-2.305254,-32.996745)">
    <path
       style="fill:#000000;fill-opacity:1;fill-rule:nonzero;stroke:none;stroke-width:0.264583"
       id="path275"
       d="M 10.540349,127.89605 C 11.976258,125.26462 12.395326,122.21333 12.754627,119.2752 12.64404,117.95633 12.969803,117.18452 13.278927,115.94162 13.412806,115.40332 13.5034,114.85507 13.628473,114.31467 14.954744,108.58424 13.15232,116.67641 14.449725,110.80088 14.56422,110.105 14.841374,108.18211 15.104676,107.48648 15.37133,106.78198 15.773101,106.13633 16.102259,105.45879 16.470533,104.70072 16.798549,103.92238 17.196948,103.17971 17.69756,102.24651 18.274988,101.35645 18.797157,100.43514 19.40076,99.370133 19.981749,98.292474 20.574045,97.221142 21.49719,95.465415 22.634296,93.234858 23.668426,91.52611 24.194697,90.656525 24.786961,89.828514 25.331749,88.970407 25.828068,88.188645 26.277638,87.377174 26.791528,86.606847 27.833978,85.044194 29.136411,83.391549 30.275786,81.90177 31.584243,79.651057 33.322617,77.717683 34.924185,75.685107 35.431256,75.041574 35.889157,74.360251 36.397276,73.717543 37.412112,72.433899 38.205174,71.580469 39.283153,70.374231 39.798672,69.883786 40.278052,69.352302 40.829711,68.902894 41.763047,68.142553 42.792327,67.505841 43.730372,66.751321 49.066624,62.459089 45.279735,65.172142 50.728543,60.5703 52.126461,59.389673 53.59742,58.298349 55.031748,57.162231 56.518502,55.984586 58.005106,54.806751 59.491784,53.629009 63.386583,50.208039 67.738389,46.522258 72.991344,45.461245 74.469968,45.162586 78.015586,44.985789 79.519816,44.889348 80.61694,44.808986 81.713728,44.723888 82.81119,44.648265 86.480493,44.395413 86.599399,44.491835 90.314268,43.922725 91.488926,43.742768 92.650137,43.48336 93.821484,43.282986 96.066598,42.898933 97.799182,42.660749 100.03506,42.336079 100.83922,42.250568 101.63886,42.080886 102.44755,42.07955 102.54384,42.079388 102.49516,42.307171 102.58823,42.331854 103.50158,42.574096 104.44698,42.673563 105.37418,42.855753 106.31969,43.04154 107.26902,43.211543 108.20616,43.435754 109.20899,43.675678 112.51911,44.6406 113.55775,44.939714 116.56609,45.715412 119.58328,46.511045 122.64524,47.051917 125.3132,47.36911 124.00237,47.281885 127.91221,47.201171 128.45147,47.190038 128.98961,47.114981 129.52876,47.130308 129.77193,47.137222 128.57147,47.159653 128.80535,47.226563 129.22114,47.345512 129.6696,47.263671 130.10101,47.294016 130.46602,47.319691 130.82977,47.361064 131.19415,47.394587 131.49828,47.451586 131.82289,47.441929 132.10653,47.565585 132.47649,47.726869 132.77734,48.014596 133.11684,48.232808 133.57676,48.528417 134.04855,48.80552 134.50467,49.106954 136.23157,50.248192 137.93092,51.399778 139.70066,52.47628 141.48387,53.729622 142.4544,54.482798 144.41085,55.545426 145.27692,56.015826 146.19256,56.388843 147.07562,56.826517 149.90204,58.227375 152.68209,59.70353 155.52927,61.06352 157.83659,62.417242 160.50144,63.905079 162.40817,65.820771 163.08321,66.498985 163.65427,67.273873 164.24987,68.022821 165.31981,69.368254 166.85504,71.487595 167.88273,72.88831 169.36008,74.992367 169.84673,75.707062 171.35407,77.769298 171.85444,78.453865 172.41277,79.097856 172.87124,79.811167 173.70422,81.107178 174.8401,83.518935 175.5262,84.839253 176.00651,85.763549 176.5079,86.676737 176.99875,87.595481 178.34687,90.424891 178.88024,91.670663 180.44466,94.427549 181.04961,95.493617 181.7358,96.511839 182.35341,97.570619 183.71772,99.909467 184.185,101.02806 185.64538,103.22589 186.07056,103.86578 186.55999,104.46057 187.01729,105.07791 187.36007,105.52943 187.68751,105.993 188.04562,106.43246 188.28026,106.7204 188.57123,106.96086 188.79392,107.25815 189.00621,107.54154 189.38556,108.42864 189.51471,108.70869 189.87251,109.48457 189.90265,109.54127 190.26895,110.30888 190.4888,110.83813 190.97661,112.03304 191.20389,112.47587 191.41433,112.88589 191.68813,113.261 191.90293,113.66875 192.52813,114.85557 192.90828,116.14662 193.3019,117.42132 193.86026,120.63505 194.7027,123.78852 195.47957,126.95328 195.4976,127.14127 195.55139,127.32923 195.53364,127.51725 195.50234,127.84869 195.39284,128.16817 195.33391,128.49583 195.14337,129.55529 194.95468,130.61582 194.81327,131.68294 194.53816,133.75904 194.58262,133.93677 194.50804,136.03464 194.33834,141.57285 194.06173,147.10896 194.15525,152.65102 194.28359,157.07677 194.14446,154.05583 194.44572,158.09884 194.45444,158.21579 194.6942,161.90622 194.72393,162.19191 194.81052,163.02401 194.96929,163.84702 195.08487,164.67559 195.12244,165.63691 195.20369,166.62151 195.09588,167.58236 195.03674,168.10938 194.92055,168.62849 194.84351,169.1532 194.58758,170.89643 194.35343,172.64282 194.0982,174.38616 193.94317,175.53783 193.78814,176.68949 193.63311,177.84116 193.43976,179.11361 193.22913,180.38356 193.05308,181.65852 192.56638,185.18318 192.7395,185.44389 191.85399,188.86477 191.84391,188.90371 189.71309,195.89244 189.66606,196.04672 187.12549,202.86272 189.70455,196.13221 186.89573,202.90575 186.45943,203.95788 186.0533,205.02235 185.64729,206.08653 185.31461,206.9585 185.09153,207.87634 184.67978,208.71388 184.62329,208.82879 182.16911,212.54313 182.07572,212.68475 181.27336,213.52354 180.471,214.36233 179.66864,215.20112 178.72034,216.24815 177.79585,217.31724 176.82374,218.3422 171.99438,223.43412 174.20475,220.66133 169.66578,226.07947 168.62689,227.31959 167.73677,228.68684 166.62525,229.8623 165.57074,230.97747 164.33497,231.90608 163.18984,232.92797 159.95094,235.38381 159.2018,236.23593 155.34788,237.9284 153.42726,238.77186 151.39917,239.34635 149.43827,240.09138 147.30777,240.90085 145.19217,241.7491 143.07451,242.59161 133.91067,246.23744 140.24184,243.86649 130.97951,247.2128 125.37548,249.05004 124.44328,249.59816 118.43792,250.52573 115.86617,250.92296 113.26413,251.0903 110.67685,251.36903 108.09266,251.64742 105.51188,251.96077 102.9235,252.19708 96.891625,252.74777 95.018539,252.77138 89.135568,253.04151 87.109296,253.42795 85.037709,253.42383 82.999394,253.70198 82.340981,253.79183 81.524228,253.66909 81.054328,254.13896 80.779336,254.41393 81.429679,254.84127 81.473592,255.22766 81.948294,259.40485 82.126914,258.53987 81.5284,260.57627 84.977101,259.71664 83.534355,255.81014 82.665691,253.36873 82.409966,252.65 81.549432,252.32683 80.956988,251.84624 78.882469,250.16338 77.935936,249.6225 75.650851,248.10999 72.715368,246.23592 69.625122,244.62771 66.555508,242.99007 65.894695,242.63752 63.752404,241.54885 63.013576,240.98607 62.652621,240.71113 62.366842,240.34948 62.043473,240.03118 61.67766,239.52104 61.297425,239.02094 60.946037,238.50076 60.484305,237.81723 60.080106,237.09531 59.604843,236.42112 57.639523,233.63319 55.358093,231.08942 53.017933,228.61767 52.472208,228.12003 51.940996,227.60599 51.38076,227.12474 50.117639,226.03972 49.855596,226.06794 48.817318,224.82885 48.403054,224.33447 48.057138,223.78662 47.67408,223.26768 46.740053,222.00234 45.752316,220.68775 44.811748,219.43131 43.387277,217.40546 41.804095,215.50008 40.293901,213.53964 39.133758,212.03361 38.022207,210.52859 36.769622,209.09745 35.660375,207.96009 34.634222,206.72078 33.461055,205.64554 33.142451,205.35354 32.792537,205.09765 32.458279,204.82371 31.05205,203.9905 29.781045,202.98908 28.558971,201.90809 27.936761,201.35771 27.272702,200.84676 26.717955,200.22844 26.259242,199.71717 22.627444,194.83873 22.388323,194.51939 19.348924,190.02348 15.843536,185.82525 13.292022,181.01349 13.011542,180.48455 12.784803,179.92882 12.531193,179.38648 12.390911,178.6627 11.875361,178.05097 11.710617,177.33226 11.653666,177.08381 11.546741,175.33319 11.533525,175.17108 11.391953,173.43458 11.440481,174.74202 11.414701,172.98379 11.427344,172.47808 11.420632,171.97152 11.452632,171.46667 11.495851,170.78482 11.608731,170.10812 11.640238,169.42563 11.698177,168.17059 11.628032,166.18232 11.588437,164.9277 11.506451,162.32983 11.573311,163.36554 11.327776,160.99935 11.124497,160.14514 11.149273,159.18113 10.808414,158.35297 10.787098,158.30119 10.743791,158.25634 10.694804,158.22919 10.676264,158.21892 10.638011,158.28005 10.638559,158.25886 10.642494,158.10682 10.683331,157.95799 10.705717,157.80756 10.807971,156.8049 11.062952,155.83027 11.153662,154.82454 11.241237,153.85358 11.257894,152.87753 11.309917,151.90402 11.486133,149.68264 11.095697,147.49453 10.872088,145.29632 10.8048,144.05632 10.851408,142.82051 10.878482,141.58071 10.825063,140.26459 10.761405,138.93878 10.522241,137.64042 10.144797,135.59136 10.462291,137.82091 10.226325,136.03587 10.243368,134.5896 10.161231,133.14254 10.102661,131.69716 10.05379,130.83664 10.091755,129.97342 10.099565,129.11199 10.295969,127.78222 10.266119,126.4469 10.133437,125.11377 10.115472,124.68831 10.083564,124.26366 10.054031,123.8389 10.057973,123.31981 2.7168353,123.26407 2.7128938,123.78317 V 123.78317 C 2.6751602,124.22754 2.6355905,124.67191 2.6172949,125.11765 2.488133,126.49483 2.4763748,127.87539 2.7343449,129.24074 2.7743959,129.92874 2.763403,130.60068 2.5779369,131.27438 2.2887038,133.1438 2.1676204,135.06147 2.5281452,136.93016 2.7754648,138.65103 2.8531399,140.39438 3.1968527,142.10116 3.4968023,143.13679 3.320194,144.20697 3.3148476,145.27229 3.0757389,147.48797 2.6926997,149.696 2.8851653,151.93593 2.9985975,153.76111 3.0436449,155.60225 3.5290185,157.37806 3.7071739,157.16271 3.4058878,157.74467 3.3017211,158.05213 2.9732097,159.02176 2.8063452,160.03856 2.6727208,161.05006 2.4260612,163.92855 2.3962149,166.8859 2.756237,169.75992 2.8447328,170.46638 3.0138642,171.16046 3.1295191,171.86298 3.2060795,172.32803 3.2650498,172.7958 3.3328152,173.26221 3.3847148,174.07482 3.4091141,174.88903 3.4611646,175.70163 3.5235014,176.67483 3.6279756,177.2623 3.6631184,178.25206 3.6816011,178.77261 3.6291723,179.29534 3.6692363,179.81468 3.7215132,180.49233 3.8494618,181.16201 3.9395743,181.83567 4.4583408,183.84336 4.6673058,184.91059 5.4707945,186.87837 5.8788122,187.87762 6.3751144,188.83856 6.8390113,189.81312 8.6290048,193.57358 10.537636,197.27334 13.275101,200.45771 14.306288,201.62274 15.261158,202.86007 16.368664,203.95281 17.40469,204.97503 18.552227,205.8795 19.690005,206.7871 22.133369,208.73615 24.859098,210.49482 27.968045,211.10854 28.496704,210.92514 28.590838,211.04941 28.091397,210.44761 28.057668,210.40697 28.085256,210.556 28.103393,210.60561 28.191182,210.8457 28.295846,211.07964 28.406722,211.30998 28.73806,211.99832 29.083598,212.58842 29.457853,213.25515 30.094653,214.42726 30.430504,215.08037 31.174568,216.26992 31.936351,217.4878 32.906964,218.85566 33.705064,220.04907 34.200507,220.7899 34.651008,221.56164 35.176602,222.2814 35.725586,223.03319 36.34237,223.73304 36.925255,224.45886 37.437919,225.05793 39.749878,227.77441 40.306564,228.36656 42.817637,231.03758 41.152521,229.03058 43.299377,231.35539 43.655633,231.74118 43.97925,232.15592 44.32409,232.55194 44.754254,233.04596 45.190917,233.53428 45.624331,234.02545 46.59473,235.07796 47.711378,236.26238 48.628201,237.36338 49.673195,238.61829 50.67967,239.98799 51.661263,241.29057 52.704031,242.55528 53.912669,243.67739 54.907677,244.98415 55.942549,246.26093 56.785425,247.37223 57.956248,248.53182 61.202672,251.74709 65.165292,254.13902 69.2444,256.13832 72.473827,257.60579 72.288783,257.68164 75.425458,258.57342 75.932952,258.71771 76.706803,259.37111 76.971103,258.91447 77.718154,257.62377 77.277475,255.91917 77.77536,254.51343 78.133249,253.50296 79.919509,253.35034 78.034437,253.67349 77.453746,254.02132 76.529419,254.08296 76.292362,254.71699 75.034734,258.08069 74.774279,259.98664 77.07672,262.18089 78.613277,263.64524 81.432611,264.67601 83.35302,264.99873 86.370302,265.50572 89.443265,265.59295 92.488389,265.89008 99.231438,266.10474 101.00543,266.36353 107.91181,265.709 110.72688,265.44222 113.54126,265.10075 116.31653,264.55887 123.60597,263.1356 130.54605,260.41071 137.66703,258.38428 140.07188,257.53526 148.31716,254.66391 150.60598,253.69355 152.83911,252.7468 155.04564,251.72536 157.17611,250.56592 159.23045,249.44791 161.18134,248.14773 163.14135,246.87155 167.4343,244.07638 168.21427,243.34051 172.17942,240.25591 174.59224,237.86875 177.2969,235.27809 179.5547,232.72509 180.76897,231.35204 181.96959,229.9624 183.06902,228.49578 184.1472,227.05752 185.08714,225.52054 186.07919,224.02157 188.60181,220.20996 188.05834,221.03003 190.18789,217.35932 190.76666,216.60522 191.38907,215.8827 191.92419,215.09704 192.54745,214.18197 193.08639,213.21219 193.65826,212.26416 194.1843,211.39211 194.73019,210.53099 195.21786,209.63691 197.10251,206.18168 198.51811,202.5197 199.84447,198.82127 200.29879,197.51752 200.81972,196.2351 201.20743,194.91001 201.61631,193.51252 201.91463,192.08468 202.23134,190.66346 202.7076,188.52623 203.4591,184.76527 203.69053,182.56984 204.02575,179.38978 203.92443,177.68293 203.89367,174.54512 203.78725,173.49494 203.69652,172.44306 203.5744,171.39459 203.42699,170.129 203.15625,168.87948 203.0185,167.6128 202.91487,166.65989 203.01577,165.68331 203.07049,164.7321 203.19992,163.88908 203.37201,163.05178 203.46426,162.20388 203.53199,161.58131 203.70756,158.56916 203.74171,158.06216 203.99821,154.2539 203.90564,156.72078 203.96724,152.57651 203.96598,151.54569 203.98829,150.51457 203.96344,149.48405 203.85693,145.0654 203.42118,140.65896 203.45888,136.236 203.49686,134.07577 203.52532,134.24526 203.43941,132.10404 203.24717,127.31261 203.40388,133.01146 203.33753,128.9882 203.33068,128.57273 203.28757,128.15748 203.30081,127.74217 203.31275,127.36741 203.37554,126.99602 203.4129,126.62294 203.4957,125.58488 203.57143,124.94523 203.54195,123.87472 203.45667,120.77805 202.7363,117.75984 201.54552,114.90383 200.81673,113.14294 200.13044,111.64584 199.13118,110.02102 198.95303,109.73134 198.75162,109.45663 198.56185,109.17444 198.37145,108.90737 198.16481,108.65116 197.99067,108.37322 197.82843,108.11425 197.69998,107.8356 197.55464,107.56679 197.07445,106.46505 196.41068,105.20343 196.05437,104.07772 195.95537,103.76493 195.9314,103.43254 195.84573,103.11584 195.70758,102.60515 195.53754,102.10361 195.38344,101.5975 195.15865,100.86979 194.97796,100.12695 194.70906,99.41436 193.66363,96.64399 193.15408,95.925483 191.72887,93.234559 191.16078,92.161944 190.62604,91.071199 190.03013,90.013786 188.72231,87.693134 187.49109,85.828096 186.0636,83.590489 185.54176,82.634486 185.04538,81.664137 184.49807,80.72248 182.70114,77.630834 182.94572,78.325288 181.12895,75.397843 180.66278,74.646681 180.24967,73.863456 179.78397,73.112002 178.74788,71.440179 177.5913,69.844755 176.6014,68.14336 175.9829,67.156797 175.41977,66.133267 174.74589,65.183673 173.19552,62.999013 171.74251,61.460808 169.87276,59.552231 169.06598,58.728702 168.27491,57.885067 167.40149,57.132579 165.06211,55.117105 164.13323,54.713634 161.50887,53.144602 160.53036,52.617602 159.57503,52.045089 158.57335,51.563603 157.12067,50.865336 154.18528,49.750929 152.66005,49.080107 151.8539,48.725547 151.07159,48.318808 150.26991,47.954247 149.44732,47.580171 148.61507,47.227675 147.78765,46.864388 147.06949,46.53385 146.35132,46.203309 145.63315,45.87277 143.83845,44.651599 142.02015,43.515634 140.1368,42.435121 139.51254,42.076973 138.90346,41.689599 138.25796,41.371321 138.12878,41.307628 135.08555,40.021195 134.66683,39.843956 134.09523,39.674082 133.53429,39.462987 132.95203,39.334334 130.8188,38.862997 129.49753,39.025263 127.09676,39.070727 126.59946,39.080146 126.09658,39.066872 125.60694,39.15434 125.3817,39.194575 126.49989,39.121998 126.29071,39.214718 125.90872,39.384038 125.46429,39.338723 125.05109,39.400726 124.43908,39.476052 124.11687,39.561759 123.51693,39.476542 122.97312,39.399299 122.51881,39.04529 122.07039,38.767512 119.48636,37.166819 121.76357,38.431874 118.45121,36.713033 115.42535,35.457357 112.33616,34.215252 109.107,33.570814 104.99742,32.750672 100.82485,33.028501 96.666438,33.099179 95.589867,33.19876 94.511216,33.277963 93.436725,33.397922 87.738827,34.034044 82.070632,35.097984 76.318191,35.100148 74.993062,35.216761 73.659002,35.257134 72.342805,35.449986 70.694983,35.691429 65.430455,36.871425 63.916789,37.406365 58.915564,39.173827 54.569021,42.247716 50.321985,45.340254 48.793706,46.680532 47.208291,47.958335 45.73715,49.361092 44.402885,50.633336 39.782152,55.580552 38.399537,57.183117 27.569268,69.736305 42.46727,52.7041 33.679119,63.278125 33.152728,63.911487 32.52199,64.450301 31.943423,65.03639 31.373,65.630826 30.783868,66.207861 30.232154,66.819702 27.299158,70.072352 24.726836,73.623206 21.870522,76.940658 20.697016,78.592605 19.577033,80.282525 18.385845,81.921767 17.799935,82.728064 17.146072,83.483846 16.567471,84.295402 14.510439,87.180631 12.656181,90.222267 10.926731,93.31178 9.3960507,96.79996 9.3722154,96.677103 8.124137,100.20051 7.7811674,101.16874 7.4110127,102.13085 7.1541319,103.12539 6.9271607,104.00413 6.8581132,104.91669 6.6763185,105.80588 6.6672636,105.85016 5.8252867,109.30069 5.8062259,109.37885 5.6894957,110.04599 5.5475393,110.70922 5.4560356,111.38029 5.1533199,113.60036 5.3575955,115.89767 4.5940781,118.03535 3.9593144,120.5641 3.1781466,123.14954 3.0318352,125.76745 3.0051957,126.2441 3.0543124,126.72197 3.0655511,127.19924 3.0162793,127.72779 10.491077,128.42459 10.540349,127.89605 Z" />
    <path
       style="fill:#000000;fill-opacity:1;fill-rule:nonzero;stroke:none;stroke-width:0.264583"
       id="path281"
       d="M 94.145636,68.973453 C 91.224236,68.30094 92.634249,68.521907 87.960527,68.423453 85.386401,68.369227 82.794638,68.590395 80.292889,69.223569 79.640495,69.388685 79.013123,69.640383 78.373242,69.84879 76.904709,70.56353 76.088046,70.815831 74.892793,71.999104 74.391387,72.495483 74.000584,73.093865 73.594737,73.671003 72.676945,74.976148 72.10418,76.379873 71.515353,77.848102 70.914926,80.155851 69.283987,81.882656 68.041665,83.849436 66.169375,86.813553 66.178895,87.047505 64.68841,90.215317 63.655209,92.70821 62.711033,95.23365 62.231624,97.896176 62.088484,98.69113 61.891677,100.1476 61.916563,100.99163 61.929951,101.44563 62.02509,101.89352 62.079353,102.34446 62.146814,102.77336 62.274158,103.19704 62.281733,103.63114 62.289218,104.06016 62.150928,104.48045 62.1241,104.90869 62.082851,105.56709 62.076329,106.22753 62.077742,106.88723 62.079404,107.66119 62.136929,108.4345 62.133318,109.20846 62.089545,118.59142 61.977499,105.18693 62.086569,114.89859 61.967691,120.72786 62.462489,126.49463 64.463974,132.01533 65.866713,135.88451 66.663003,136.89692 68.740937,140.52985 71.551302,144.11585 73.884064,147.32597 78.325704,148.94324 79.24044,149.27631 80.211437,149.63528 81.18154,149.55421 82.935325,149.40763 84.818981,149.2204 86.304283,148.27641 87.246565,147.67753 87.341145,146.29876 87.859575,145.30993 88.178033,143.25517 87.859946,145.93308 86.758181,146.59311 85.865818,147.12769 84.651008,146.74401 83.683201,147.12538 83.466211,147.21088 84.016701,147.45202 84.194009,147.60354 85.375318,148.61304 85.459868,148.62113 86.840003,149.60132 89.443797,151.20865 92.304308,152.91315 95.463155,153.0052 96.666094,153.04026 97.869382,152.9482 99.072492,152.91971 99.539821,152.81576 100.0113,152.72899 100.47447,152.60787 101.33355,152.38322 101.73999,152.13215 102.61271,152.07341 103.13949,152.03796 104.82886,152.20304 105.23423,152.20939 105.83659,152.21883 106.43868,152.17753 107.04091,152.16159 110.33692,152.01262 113.63082,151.30848 116.48428,149.58879 116.98492,149.28707 117.44125,148.91729 117.91974,148.58154 119.41853,147.56194 119.52998,147.56107 120.92353,146.28374 121.35642,145.88696 121.73428,145.43284 122.16691,145.03578 122.60477,144.63392 123.09118,144.28749 123.53242,143.88934 124.71747,142.82003 125.0886,142.37129 126.15744,141.22026 127.95995,138.89447 126.39407,140.9533 128.16847,138.50518 128.59689,137.91409 129.07118,137.35513 129.46842,136.74264 129.88235,136.10441 130.22631,135.42338 130.59775,134.75952 131.23817,133.61493 132.41727,131.4399 133.02958,130.31482 134.2934,127.30393 135.90449,124.42746 136.95139,121.32488 137.68946,119.13757 138.4869,115.56977 138.83306,113.27377 139.02102,112.02703 139.09497,110.76576 139.22592,109.51175 139.20685,106.60023 139.03829,103.5637 137.82611,100.86595 137.47352,100.08126 137.25384,99.782489 136.82653,99.120676 135.98007,98.070063 135.85451,96.892519 135.51738,95.628906 135.06931,93.949484 134.74225,93.145966 134.14662,91.470823 133.07058,88.810321 132.07134,86.058673 130.48374,83.645604 129.68937,82.438191 129.26484,82.034646 128.33141,80.989756 127.78966,80.460309 126.88148,79.550659 126.30251,79.077718 125.97792,78.812574 125.60768,78.60707 125.28159,78.343783 124.78511,77.942928 123.63522,76.794605 123.2302,76.43351 122.73988,75.996357 122.22787,75.584152 121.7267,75.159472 119.63003,73.536058 117.36577,72.069787 114.9395,70.981088 114.31121,70.699163 112.52073,70.086944 111.87836,69.861707 109.23687,68.977234 106.49266,68.302605 103.68786,68.3355 102.50116,68.34942 101.31587,68.421741 100.12987,68.464863 99.723386,68.542664 99.317639,68.624436 98.910414,68.698268 98.560029,68.761797 98.206315,68.806916 97.857169,68.876928 97.072279,69.034315 96.360844,69.308506 95.55514,69.236052 98.975798,69.256824 95.124023,69.121001 94.485811,69.087885 93.969368,68.936988 91.835358,76.240576 92.351801,76.391473 V 76.391473 C 94.117013,76.436933 95.87531,76.581208 97.643306,76.465776 99.216706,76.298361 100.80978,76.274413 102.3882,76.355029 102.08333,76.369354 101.16973,76.369277 101.47358,76.398005 101.89868,76.438201 102.32756,76.386715 102.75455,76.389668 104.44431,76.40135 106.13539,76.522738 107.77196,76.974053 109.3106,77.454992 108.23449,77.057588 109.87576,77.861963 110.30579,78.07272 110.75459,78.245289 111.17704,78.470857 112.7041,79.286245 114.07026,80.364924 115.51149,81.314001 116.57386,82.005463 117.49545,82.609276 118.56211,83.288274 120.73758,84.6731 118.94103,83.488595 120.40018,84.489339 120.61231,84.634823 120.84504,84.752687 121.04075,84.919599 121.24585,85.094515 121.41029,85.312133 121.59507,85.508398 123.56528,88.075166 124.20693,91.305527 125.38154,94.259589 126.00591,95.776805 126.61458,97.40285 127.44575,98.826001 128.17281,100.07089 129.12411,101.18542 130.06207,102.26603 130.16965,102.58183 130.10836,102.70088 130.07609,103.07585 129.92369,104.8468 129.4746,106.55257 129.07216,108.28344 128.36034,112.02247 128.52106,111.26272 127.71126,115.15019 127.68124,115.29433 126.33704,121.66973 126.25787,121.96032 125.69734,124.01758 125.18133,124.96959 124.32135,126.87261 123.48246,128.87603 122.65626,130.86997 121.71982,132.82935 121.50225,133.28458 121.33618,133.76758 121.07141,134.19708 120.68011,134.83182 119.85465,135.51092 119.33305,135.99016 118.20628,137.06185 117.94405,137.2918 116.84479,138.41789 115.51077,139.78448 114.18806,141.19049 112.59031,142.25858 111.80186,142.59587 111.34749,142.81435 110.50849,143.06654 108.54163,143.65776 106.46613,143.86125 104.42212,143.9133 102.69895,144.09796 102.49259,144.07058 100.7916,144.45288 99.456715,144.75289 98.165771,145.29424 96.770289,145.2073 97.208733,145.21411 97.648084,145.19876 98.085623,145.22773 98.369656,145.24654 97.516121,145.24998 97.231725,145.23786 95.387757,145.15929 94.210446,144.24993 92.735105,143.21447 92.052104,142.78827 90.065888,141.53449 89.40933,141.18786 88.788583,140.86012 88.19499,140.3944 87.499263,140.30115 83.372737,139.74805 81.909739,139.58934 80.21281,143.39481 82.009738,141.38627 80.669891,142.37095 84.703847,141.97524 84.723816,141.97328 84.66892,141.95465 84.654691,141.9405 84.209601,141.498 83.776655,141.04326 83.326509,140.60589 79.498059,136.8862 82.139702,139.65566 78.40733,135.56712 77.718869,134.62059 76.907161,133.75243 76.341943,132.72752 75.262628,130.7704 74.578759,127.79694 74.013414,125.70166 73.661354,124.39687 73.264648,123.10267 72.973133,121.78303 72.580639,120.00628 72.099341,116.55496 71.823169,114.68848 71.677894,110.98444 71.811625,112.19232 71.32661,108.53933 71.075123,106.64524 70.964001,105.59476 70.421015,103.78868 69.936317,102.17648 70.241429,102.45581 69.645169,101.98628 69.67593,102.02035 69.70777,102.12349 69.737451,102.08848 69.857071,101.94738 69.890864,101.75135 69.981185,101.58992 70.159419,101.27136 70.349064,100.95919 70.542493,100.64962 70.871674,100.12279 71.233267,99.616113 71.548828,99.081007 72.778683,96.995513 73.169231,96.096573 74.280582,93.855708 74.768077,92.774957 75.300455,91.71335 75.743069,90.613456 77.077334,87.297804 77.791166,83.774544 79.18488,80.481566 79.519694,79.707353 79.809749,78.779753 80.2774,78.066632 80.295453,78.039099 80.343557,78.063504 80.375582,78.055866 81.373812,77.817765 80.286745,77.998652 81.894515,77.803303 83.93776,77.680777 85.972196,77.478892 88.014362,77.338049 88.815541,77.282793 89.629741,77.333014 90.418583,77.182445 90.518593,77.163358 90.425486,76.978932 90.428939,76.877174 91.022783,76.754923 91.616629,76.63267 92.210473,76.510416 92.743416,76.647253 94.678581,69.11029 94.145636,68.973453 Z" />
    <path
       style="fill:#000000;fill-opacity:1;fill-rule:nonzero;stroke:none;stroke-width:0.264583"
       id="path283"
       d="M 85.693709,148.24641 C 85.127811,148.98324 84.948539,149.90857 84.581806,150.74166 84.349422,151.26955 84.032941,151.79136 83.737825,152.28667 82.477715,153.16864 81.66982,154.59436 80.782635,155.8205 80.277276,156.13133 80.083786,156.79655 79.595045,157.12236 79.322881,157.3038 78.973933,157.33162 78.676729,157.46823 76.960554,158.25706 77.203249,158.30045 75.442246,159.15014 74.762139,159.47829 74.061756,159.76264 73.371511,160.06889 68.180275,162.3744 63.262176,165.22564 58.284287,167.94651 55.307094,170.01351 52.34778,172.13247 49.569594,174.46507 48.866348,175.05553 48.216534,175.70737 47.519431,176.30507 46.616185,177.07952 45.759798,177.71172 44.823117,178.42201 43.710751,179.24271 42.300681,179.95806 41.333875,180.96383 41.095609,181.21169 40.895812,181.49385 40.676782,181.75887 39.443342,183.80439 40.776244,181.54497 39.901145,183.14768 39.798275,183.33609 39.578383,183.43133 39.427851,183.58436 39.119288,183.89804 38.337648,184.77226 38.067628,185.07154 36.406452,187.05449 34.900666,189.13653 33.63414,191.39283 33.243297,192.27451 32.814424,193.14301 32.433712,194.02853 32.32292,194.28622 32.256137,194.56217 32.135714,194.81552 31.997655,195.10596 31.809272,195.37001 31.660531,195.65513 31.458339,196.0427 31.275753,196.44019 31.083363,196.83272 30.289471,199.02038 29.547677,201.26761 29.370337,203.60653 29.241234,205.30926 29.41539,205.9474 29.64738,207.57308 29.825995,208.28884 30.044271,209.22713 30.273696,209.96155 30.334616,210.15655 30.311994,210.42421 30.481603,210.5381 30.586746,210.60871 30.556324,210.29604 30.590032,210.17396 30.951564,208.86456 30.884124,209.30747 30.967939,208.67717 30.271505,209.24426 29.855522,209.97044 29.452038,210.75913 29.248314,211.23838 36.025886,214.11949 36.22961,213.64024 V 213.64024 C 36.026714,214.06611 36.546506,213.32287 36.649834,213.28977 36.82515,213.06755 37.048106,212.87573 37.175781,212.62311 38.178213,210.6397 38.190736,209.07111 38.053271,206.93717 38.042323,206.25268 38.022977,204.82133 37.996886,204.1696 37.979783,203.74243 37.888005,203.31535 37.922361,202.88921 37.959371,202.43014 38.115388,201.98854 38.209077,201.53761 38.544756,199.92195 38.312611,200.81925 38.746437,199.34207 38.840357,199.01021 39.152128,197.86147 39.300867,197.50571 39.376712,197.32431 39.500402,197.16677 39.594604,196.99418 39.98459,196.27969 40.369362,195.56799 40.864657,194.9168 42.17404,192.92182 43.723054,191.10053 45.044142,189.11535 45.257235,188.75343 45.484298,188.39938 45.683418,188.02959 46.594987,186.33668 45.671078,187.92351 46.359259,186.52946 46.449773,186.3461 46.564938,186.17597 46.66911,186.00001 46.684895,185.97335 46.730038,185.89265 46.719098,185.92164 46.695537,185.98408 46.660276,186.04146 46.630865,186.10137 46.594058,186.17085 46.461775,186.25746 46.520449,186.30979 46.583991,186.36648 46.675082,186.23622 46.75733,186.21418 46.848797,186.18967 46.946415,186.19466 47.038122,186.17107 48.117709,185.8934 49.167414,185.49412 50.198199,185.07632 50.810794,184.80951 51.436788,184.57157 52.035985,184.27589 56.803387,181.92339 60.976769,178.61555 65.099741,175.30243 65.83745,174.67161 66.512653,173.95934 67.312865,173.40997 67.958726,172.96656 68.703967,172.68866 69.407867,172.34476 72.679482,170.74636 76.055796,169.31738 79.098247,167.29234 80.128741,166.63316 82.209152,165.34283 83.210531,164.55409 84.949196,163.18464 86.4159,161.46559 87.663744,159.64891 87.85517,159.36049 88.051602,159.07532 88.238025,158.78364 88.52868,158.32887 88.782831,157.75425 89.159674,157.35779 89.343687,157.1642 89.572874,157.01697 89.755659,156.82222 90.022819,156.53758 90.256002,156.22286 90.506171,155.92317 91.844893,154.03098 92.733438,152.31932 92.900941,149.96263 93.022294,149.453 85.815066,147.73678 85.693709,148.24641 Z" />
    <path
       style="fill:#000000;fill-opacity:1;fill-rule:nonzero;stroke:none;stroke-width:0.264583"
       id="path285"
       d="M 111.74967,149.91298 C 111.83497,152.3558 112.67843,154.72668 113.98895,156.78023 114.25527,157.19755 114.56023,157.58891 114.84587,157.99325 115.92239,159.123 116.13392,159.49095 117.50475,160.31986 118.15449,160.71274 118.93034,160.90884 119.61176,161.23942 119.98681,161.42137 121.02824,162.04224 121.37849,162.24776 121.70758,162.50317 122.0542,162.73748 122.36576,163.014 124.08639,164.54111 123.4548,164.26745 125.41701,166.11745 126.15858,166.81661 126.95261,167.45811 127.73255,168.11418 130.67787,170.59174 130.22859,170.17891 133.46231,172.58104 136.35355,174.41185 139.39653,176.09962 142.63897,177.23605 146.21262,178.48857 144.02095,177.47659 147.31367,178.28728 147.99562,178.45518 148.64738,178.72797 149.31424,178.94832 150.07223,179.20446 150.85112,179.4055 151.5882,179.71674 152.54854,180.12226 153.46,180.63498 154.3959,181.0941 155.56337,181.59675 156.72071,182.12363 157.89832,182.60205 160.97319,183.85128 164.11549,184.94464 167.21287,186.13742 168.62408,186.71428 169.42273,186.90239 170.58563,187.85883 171.51183,188.62057 173.35345,190.74518 174.08404,191.48487 174.98628,192.39835 177.63124,194.83074 178.52715,195.66154 180.48667,197.48042 182.68864,199.00768 184.99982,200.34184 185.94965,200.89015 186.96201,201.45725 188.03746,201.71096 188.04302,201.6543 188.07444,201.59417 188.05413,201.54099 187.86458,201.11601 187.67504,200.69104 187.48549,200.26606 187.46265,199.87745 187.5453,199.46775 187.41696,199.10023 187.35106,198.91151 187.30279,199.48579 187.28247,199.68465 187.20492,200.44344 187.25855,200.71992 187.32174,201.4315 187.72398,203.04783 187.93642,204.70114 188.24304,206.3367 188.30551,206.88946 196.1228,206.00599 196.06033,205.45322 V 205.45322 C 195.90942,203.91804 195.6179,202.65572 195.05717,201.22095 194.7962,200.55319 194.986,200.75638 194.73399,200.51927 194.52661,199.85948 194.51914,200.70829 194.50627,200.27788 194.49076,199.75895 194.62017,199.22892 194.51549,198.72042 194.26504,197.50385 193.95004,197.18789 193.34467,196.35686 191.28956,193.64965 188.45744,191.61654 185.98578,189.32386 182.9893,186.71792 184.47149,188.06202 181.54189,185.2886 180.76789,184.61523 179.93682,184.01039 179.13779,183.36693 177.07167,181.70307 175.10458,179.9266 172.98243,178.33299 172.08656,177.79498 171.21161,177.22048 170.29481,176.71896 164.95236,173.79647 159.12948,171.93157 153.1495,170.8491 152.41836,170.74611 151.67873,170.6916 150.95607,170.54011 150.09519,170.35966 148.76659,169.68932 148.05949,169.35571 147.32193,169.00772 146.56818,168.69018 145.85468,168.2952 144.01314,167.27575 142.33263,165.98119 140.47488,164.98871 139.47357,164.39799 138.45707,163.8323 137.47094,163.21656 134.56317,161.40096 135.12995,161.6116 132.42462,159.74108 130.50573,158.41432 128.53827,157.15059 126.55762,155.91861 124.8684,154.97762 125.62882,155.33666 123.94343,154.63425 123.77891,154.56568 122.79142,154.11751 122.44567,154.09128 121.37718,154.01024 122.66404,154.34513 121.83445,154.09956 120.69522,152.37683 120.11599,150.35107 119.13954,148.54012 119.04247,148.01757 111.6526,149.39043 111.74967,149.91298 Z" />
    <path
       style="fill:#000000;fill-opacity:1;fill-rule:nonzero;stroke:none;stroke-width:0.264583"
       id="path289"
       d="M 85.798021,129.54821 C 85.397709,129.61856 84.781958,129.3973 84.597085,129.75927 84.444947,130.05715 85.249942,129.90544 85.574724,129.98542 86.02651,130.09668 86.472741,130.23056 86.926615,130.33295 88.312801,130.64567 89.720263,130.81945 91.113672,131.0937 92.431692,131.39788 93.765734,131.59054 95.096379,131.81654 95.455744,131.87758 95.803687,132.01428 96.167502,132.0368 97.119836,132.09574 98.075754,132.05225 99.029879,132.05998 99.783822,131.99515 100.51969,131.76312 101.26841,131.67194 101.83401,131.60306 102.43454,131.66362 103.0009,131.68727 103.24072,131.70756 103.92069,131.61476 103.72035,131.74815 103.44945,131.92852 102.5927,131.56943 102.74979,131.85446 102.91866,132.16084 103.44887,131.8873 103.7987,131.89029 105.53316,131.90512 107.26796,131.9409 108.98249,131.66198 110.33151,131.33495 111.48165,130.6147 112.66008,129.92332 114.14106,129.05443 112.37599,130.17563 113.95579,129.14916 114.88955,128.56573 116.04238,128.39488 116.97392,127.81666 117.23245,127.65619 117.46359,127.4553 117.70842,127.27461 118.58848,126.43321 119.3489,125.4424 119.97726,124.40065 120.20972,123.93645 113.64492,120.64887 113.41245,121.11307 V 121.11307 C 113.17186,121.44336 113.89693,120.44616 113.14783,121.50085 113.0941,121.5765 112.91211,121.72962 112.90507,121.6371 112.90058,121.57814 112.95117,121.5282 112.97422,121.47375 112.48171,121.42548 111.78499,121.81266 111.36711,121.99801 110.49135,122.38646 109.65931,122.84917 108.87671,123.40367 107.90574,123.9936 107.64985,124.47268 106.50417,124.24574 106.25244,124.24042 105.49734,124.22068 105.74897,124.22979 106.13978,124.24394 106.54062,124.34847 106.92175,124.26085 107.24622,124.18627 106.25821,124.2022 105.92553,124.18921 104.23955,124.12332 102.54518,124.19452 100.86419,124.32679 99.570822,124.44894 98.294498,124.75416 96.993643,124.74539 97.516827,124.76347 98.043909,124.73337 98.563196,124.79963 98.664174,124.81252 98.379522,124.91892 98.278181,124.90931 98.106896,124.89306 97.956795,124.78631 97.795357,124.7268 96.808799,124.36316 95.799403,124.07346 94.816349,123.69931 94.090502,123.47244 92.525965,122.96674 91.800859,122.81055 89.23462,122.25777 86.56317,122.25702 83.959403,122.38727 83.453048,122.51728 85.291667,129.67822 85.798021,129.54821 Z" />
  </g>
</svg>
